<mxfile host="app.diagrams.net" modified="2022-03-21T01:05:25.242Z" agent="5.0 (Windows NT 10.0; WOW64) AppleWebKit/537.36 (KHTML, like Gecko) Chrome/98.0.4758.116 Safari/537.36" etag="sIYdZnOQxCbXrba6Xe-h" version="16.6.2" type="github" pages="2">
  <diagram id="YDbAIs2nPjnxUMnrsH2y" name="Trang-1">
    <mxGraphModel dx="1209" dy="660" grid="0" gridSize="10" guides="1" tooltips="1" connect="1" arrows="1" fold="1" page="1" pageScale="1" pageWidth="4681" pageHeight="3300" math="0" shadow="0">
      <root>
        <mxCell id="0" />
        <mxCell id="1" parent="0" />
        <mxCell id="_ryeKOipuQITKXEtM85--3" value="" style="rounded=0;whiteSpace=wrap;html=1;" parent="1" vertex="1">
          <mxGeometry x="824" y="510" width="644" height="489" as="geometry" />
        </mxCell>
        <mxCell id="_ryeKOipuQITKXEtM85--13" value="Các thành phần của ISCS" style="text;html=1;strokeColor=none;fillColor=none;align=center;verticalAlign=middle;whiteSpace=wrap;rounded=0;fontColor=#4A4A4A;fontStyle=2" parent="1" vertex="1">
          <mxGeometry x="1051" y="962" width="190" height="30" as="geometry" />
        </mxCell>
        <mxCell id="0mwN60Ps30yAKNXCQcVi-4" value="" style="group" parent="1" vertex="1" connectable="0">
          <mxGeometry x="843" y="530" width="718" height="126" as="geometry" />
        </mxCell>
        <mxCell id="0mwN60Ps30yAKNXCQcVi-1" value="" style="shape=folder;fontStyle=1;spacingTop=10;tabWidth=103;tabHeight=21;tabPosition=left;html=1;strokeColor=#d79b00;fillColor=#ffe6cc;" parent="0mwN60Ps30yAKNXCQcVi-4" vertex="1">
          <mxGeometry width="608" height="105" as="geometry" />
        </mxCell>
        <mxCell id="0mwN60Ps30yAKNXCQcVi-3" value="&lt;span style=&quot;color: rgb(51 , 51 , 51)&quot;&gt;&lt;b&gt;Applications&lt;/b&gt;&lt;/span&gt;" style="text;html=1;align=center;verticalAlign=middle;resizable=0;points=[];autosize=1;strokeColor=none;fillColor=none;" parent="0mwN60Ps30yAKNXCQcVi-4" vertex="1">
          <mxGeometry x="10" y="0.984375" width="82" height="18" as="geometry" />
        </mxCell>
        <mxCell id="0mwN60Ps30yAKNXCQcVi-21" value="" style="group" parent="0mwN60Ps30yAKNXCQcVi-4" vertex="1" connectable="0">
          <mxGeometry x="459" y="38.5" width="133" height="57.00437499999998" as="geometry" />
        </mxCell>
        <mxCell id="0mwN60Ps30yAKNXCQcVi-22" value="&lt;p style=&quot;line-height: 0.7&quot;&gt;&lt;/p&gt;&lt;h2 style=&quot;font-size: 13px&quot;&gt;&lt;span style=&quot;color: rgba(0 , 0 , 0 , 0) ; font-family: monospace ; font-size: 0px ; font-weight: 400&quot;&gt;%3CmxGraphModel%3E%3Croot%3E%3CmxCell%20id%3D%220%22%2F%3E%3CmxCell%20id%3D%221%22%20parent%3D%220%22%2F%3E%3CmxCell%20id%3D%222%22%20value%3D%22%26lt%3Bspan%20style%3D%26quot%3Bcolor%3A%20rgb(51%20%2C%2051%20%2C%2051)%26quot%3B%26gt%3BApplication%26lt%3B%2Fspan%26gt%3B%22%20style%3D%22text%3Bhtml%3D1%3Balign%3Dcenter%3BverticalAlign%3Dmiddle%3Bresizable%3D0%3Bpoints%3D%5B%5D%3Bautosize%3D1%3BstrokeColor%3Dnone%3BfillColor%3Dnone%3B%22%20vertex%3D%221%22%20parent%3D%221%22%3E%3CmxGeometry%20x%3D%22976%22%20y%3D%22679.984375%22%20width%3D%2269%22%20height%3D%2218%22%20as%3D%22geometry%22%2F%3E%3C%2FmxCell%3E%3C%2Froot%3E%3C%2FmxGraphModel%3E&lt;/span&gt;&lt;br&gt;&lt;/h2&gt;&lt;p&gt;&lt;/p&gt;" style="html=1;dropTarget=0;strokeColor=#d79b00;fillColor=#ffe6cc;" parent="0mwN60Ps30yAKNXCQcVi-21" vertex="1">
          <mxGeometry width="133" height="48" as="geometry" />
        </mxCell>
        <mxCell id="0mwN60Ps30yAKNXCQcVi-23" value="" style="shape=module;jettyWidth=8;jettyHeight=4;strokeColor=#999999;" parent="0mwN60Ps30yAKNXCQcVi-22" vertex="1">
          <mxGeometry x="1" width="20" height="20" relative="1" as="geometry">
            <mxPoint x="-27" y="7" as="offset" />
          </mxGeometry>
        </mxCell>
        <mxCell id="0mwN60Ps30yAKNXCQcVi-24" value="&lt;span style=&quot;color: rgb(51 , 51 , 51)&quot;&gt;&lt;b&gt;Oidc Web&lt;/b&gt;&lt;/span&gt;" style="text;html=1;align=center;verticalAlign=middle;resizable=0;points=[];autosize=1;strokeColor=none;fillColor=none;" parent="0mwN60Ps30yAKNXCQcVi-21" vertex="1">
          <mxGeometry x="35" y="15.004374999999982" width="65" height="18" as="geometry" />
        </mxCell>
        <mxCell id="0mwN60Ps30yAKNXCQcVi-10" value="" style="group" parent="0mwN60Ps30yAKNXCQcVi-4" vertex="1" connectable="0">
          <mxGeometry x="12" y="39.5" width="133" height="48" as="geometry" />
        </mxCell>
        <mxCell id="0mwN60Ps30yAKNXCQcVi-5" value="&lt;p style=&quot;line-height: 0.7&quot;&gt;&lt;/p&gt;&lt;h2 style=&quot;font-size: 13px&quot;&gt;&lt;span style=&quot;color: rgba(0 , 0 , 0 , 0) ; font-family: monospace ; font-size: 0px ; font-weight: 400&quot;&gt;%3CmxGraphModel%3E%3Croot%3E%3CmxCell%20id%3D%220%22%2F%3E%3CmxCell%20id%3D%221%22%20parent%3D%220%22%2F%3E%3CmxCell%20id%3D%222%22%20value%3D%22%26lt%3Bspan%20style%3D%26quot%3Bcolor%3A%20rgb(51%20%2C%2051%20%2C%2051)%26quot%3B%26gt%3BApplication%26lt%3B%2Fspan%26gt%3B%22%20style%3D%22text%3Bhtml%3D1%3Balign%3Dcenter%3BverticalAlign%3Dmiddle%3Bresizable%3D0%3Bpoints%3D%5B%5D%3Bautosize%3D1%3BstrokeColor%3Dnone%3BfillColor%3Dnone%3B%22%20vertex%3D%221%22%20parent%3D%221%22%3E%3CmxGeometry%20x%3D%22976%22%20y%3D%22679.984375%22%20width%3D%2269%22%20height%3D%2218%22%20as%3D%22geometry%22%2F%3E%3C%2FmxCell%3E%3C%2Froot%3E%3C%2FmxGraphModel%3E&lt;/span&gt;&lt;br&gt;&lt;/h2&gt;&lt;p&gt;&lt;/p&gt;" style="html=1;dropTarget=0;strokeColor=#d79b00;fillColor=#ffe6cc;" parent="0mwN60Ps30yAKNXCQcVi-10" vertex="1">
          <mxGeometry width="133" height="48" as="geometry" />
        </mxCell>
        <mxCell id="0mwN60Ps30yAKNXCQcVi-6" value="" style="shape=module;jettyWidth=8;jettyHeight=4;strokeColor=#999999;" parent="0mwN60Ps30yAKNXCQcVi-5" vertex="1">
          <mxGeometry x="1" width="20" height="20" relative="1" as="geometry">
            <mxPoint x="-27" y="7" as="offset" />
          </mxGeometry>
        </mxCell>
        <mxCell id="0mwN60Ps30yAKNXCQcVi-8" value="&lt;span style=&quot;color: rgb(51 , 51 , 51)&quot;&gt;&lt;b&gt;MA Web&lt;/b&gt;&lt;/span&gt;" style="text;html=1;align=center;verticalAlign=middle;resizable=0;points=[];autosize=1;strokeColor=none;fillColor=none;" parent="0mwN60Ps30yAKNXCQcVi-10" vertex="1">
          <mxGeometry x="35" y="15.504374999999982" width="57" height="18" as="geometry" />
        </mxCell>
        <mxCell id="0mwN60Ps30yAKNXCQcVi-11" value="" style="group" parent="0mwN60Ps30yAKNXCQcVi-4" vertex="1" connectable="0">
          <mxGeometry x="160" y="39.5" width="133" height="48" as="geometry" />
        </mxCell>
        <mxCell id="0mwN60Ps30yAKNXCQcVi-12" value="&lt;p style=&quot;line-height: 0.7&quot;&gt;&lt;/p&gt;&lt;h2 style=&quot;font-size: 13px&quot;&gt;&lt;span style=&quot;color: rgba(0 , 0 , 0 , 0) ; font-family: monospace ; font-size: 0px ; font-weight: 400&quot;&gt;%3CmxGraphModel%3E%3Croot%3E%3CmxCell%20id%3D%220%22%2F%3E%3CmxCell%20id%3D%221%22%20parent%3D%220%22%2F%3E%3CmxCell%20id%3D%222%22%20value%3D%22%26lt%3Bspan%20style%3D%26quot%3Bcolor%3A%20rgb(51%20%2C%2051%20%2C%2051)%26quot%3B%26gt%3BApplication%26lt%3B%2Fspan%26gt%3B%22%20style%3D%22text%3Bhtml%3D1%3Balign%3Dcenter%3BverticalAlign%3Dmiddle%3Bresizable%3D0%3Bpoints%3D%5B%5D%3Bautosize%3D1%3BstrokeColor%3Dnone%3BfillColor%3Dnone%3B%22%20vertex%3D%221%22%20parent%3D%221%22%3E%3CmxGeometry%20x%3D%22976%22%20y%3D%22679.984375%22%20width%3D%2269%22%20height%3D%2218%22%20as%3D%22geometry%22%2F%3E%3C%2FmxCell%3E%3C%2Froot%3E%3C%2FmxGraphModel%3E&lt;/span&gt;&lt;br&gt;&lt;/h2&gt;&lt;p&gt;&lt;/p&gt;" style="html=1;dropTarget=0;strokeColor=#d79b00;fillColor=#ffe6cc;" parent="0mwN60Ps30yAKNXCQcVi-11" vertex="1">
          <mxGeometry width="133" height="48" as="geometry" />
        </mxCell>
        <mxCell id="0mwN60Ps30yAKNXCQcVi-13" value="" style="shape=module;jettyWidth=8;jettyHeight=4;strokeColor=#999999;" parent="0mwN60Ps30yAKNXCQcVi-12" vertex="1">
          <mxGeometry x="1" width="20" height="20" relative="1" as="geometry">
            <mxPoint x="-27" y="7" as="offset" />
          </mxGeometry>
        </mxCell>
        <mxCell id="0mwN60Ps30yAKNXCQcVi-14" value="&lt;font color=&quot;#333333&quot;&gt;&lt;b&gt;Admin Web&lt;/b&gt;&lt;/font&gt;" style="text;html=1;align=center;verticalAlign=middle;resizable=0;points=[];autosize=1;strokeColor=none;fillColor=none;" parent="0mwN60Ps30yAKNXCQcVi-11" vertex="1">
          <mxGeometry x="28.5" y="15.004374999999982" width="76" height="18" as="geometry" />
        </mxCell>
        <mxCell id="0mwN60Ps30yAKNXCQcVi-16" value="" style="group" parent="0mwN60Ps30yAKNXCQcVi-4" vertex="1" connectable="0">
          <mxGeometry x="310" y="39.5" width="133" height="48" as="geometry" />
        </mxCell>
        <mxCell id="0mwN60Ps30yAKNXCQcVi-17" value="&lt;p style=&quot;line-height: 0.7&quot;&gt;&lt;/p&gt;&lt;h2 style=&quot;font-size: 13px&quot;&gt;&lt;span style=&quot;color: rgba(0 , 0 , 0 , 0) ; font-family: monospace ; font-size: 0px ; font-weight: 400&quot;&gt;%3CmxGraphModel%3E%3Croot%3E%3CmxCell%20id%3D%220%22%2F%3E%3CmxCell%20id%3D%221%22%20parent%3D%220%22%2F%3E%3CmxCell%20id%3D%222%22%20value%3D%22%26lt%3Bspan%20style%3D%26quot%3Bcolor%3A%20rgb(51%20%2C%2051%20%2C%2051)%26quot%3B%26gt%3BApplication%26lt%3B%2Fspan%26gt%3B%22%20style%3D%22text%3Bhtml%3D1%3Balign%3Dcenter%3BverticalAlign%3Dmiddle%3Bresizable%3D0%3Bpoints%3D%5B%5D%3Bautosize%3D1%3BstrokeColor%3Dnone%3BfillColor%3Dnone%3B%22%20vertex%3D%221%22%20parent%3D%221%22%3E%3CmxGeometry%20x%3D%22976%22%20y%3D%22679.984375%22%20width%3D%2269%22%20height%3D%2218%22%20as%3D%22geometry%22%2F%3E%3C%2FmxCell%3E%3C%2Froot%3E%3C%2FmxGraphModel%3E&lt;/span&gt;&lt;br&gt;&lt;/h2&gt;&lt;p&gt;&lt;/p&gt;" style="html=1;dropTarget=0;strokeColor=#d79b00;fillColor=#ffe6cc;" parent="0mwN60Ps30yAKNXCQcVi-16" vertex="1">
          <mxGeometry width="133" height="48" as="geometry" />
        </mxCell>
        <mxCell id="0mwN60Ps30yAKNXCQcVi-18" value="" style="shape=module;jettyWidth=8;jettyHeight=4;strokeColor=#999999;" parent="0mwN60Ps30yAKNXCQcVi-17" vertex="1">
          <mxGeometry x="1" width="20" height="20" relative="1" as="geometry">
            <mxPoint x="-27" y="7" as="offset" />
          </mxGeometry>
        </mxCell>
        <mxCell id="0mwN60Ps30yAKNXCQcVi-19" value="&lt;span style=&quot;color: rgb(51 , 51 , 51)&quot;&gt;&lt;b&gt;Static Web&lt;/b&gt;&lt;/span&gt;" style="text;html=1;align=center;verticalAlign=middle;resizable=0;points=[];autosize=1;strokeColor=none;fillColor=none;" parent="0mwN60Ps30yAKNXCQcVi-16" vertex="1">
          <mxGeometry x="31" y="15.004374999999982" width="71" height="18" as="geometry" />
        </mxCell>
        <mxCell id="0mwN60Ps30yAKNXCQcVi-47" value="" style="group" parent="1" vertex="1" connectable="0">
          <mxGeometry x="842" y="649" width="718" height="187" as="geometry" />
        </mxCell>
        <mxCell id="0mwN60Ps30yAKNXCQcVi-48" value="" style="shape=folder;fontStyle=1;spacingTop=10;tabWidth=103;tabHeight=21;tabPosition=left;html=1;strokeColor=#82b366;fillColor=#d5e8d4;" parent="0mwN60Ps30yAKNXCQcVi-47" vertex="1">
          <mxGeometry width="608" height="187" as="geometry" />
        </mxCell>
        <mxCell id="0mwN60Ps30yAKNXCQcVi-49" value="&lt;span style=&quot;color: rgb(51 , 51 , 51)&quot;&gt;&lt;b&gt;Services&lt;/b&gt;&lt;/span&gt;" style="text;html=1;align=center;verticalAlign=middle;resizable=0;points=[];autosize=1;strokeColor=none;fillColor=none;" parent="0mwN60Ps30yAKNXCQcVi-47" vertex="1">
          <mxGeometry x="22" y="0.984375" width="59" height="18" as="geometry" />
        </mxCell>
        <mxCell id="0mwN60Ps30yAKNXCQcVi-54" value="" style="group;fillColor=#d5e8d4;strokeColor=#82b366;" parent="0mwN60Ps30yAKNXCQcVi-47" vertex="1" connectable="0">
          <mxGeometry x="12" y="39.5" width="133" height="48" as="geometry" />
        </mxCell>
        <mxCell id="0mwN60Ps30yAKNXCQcVi-69" value="" style="group" parent="0mwN60Ps30yAKNXCQcVi-54" vertex="1" connectable="0">
          <mxGeometry width="133" height="48" as="geometry" />
        </mxCell>
        <mxCell id="0mwN60Ps30yAKNXCQcVi-55" value="&lt;p style=&quot;line-height: 0.7&quot;&gt;&lt;/p&gt;&lt;h2 style=&quot;font-size: 13px&quot;&gt;&lt;span style=&quot;color: rgba(0 , 0 , 0 , 0) ; font-family: monospace ; font-size: 0px ; font-weight: 400&quot;&gt;%3CmxGraphModel%3E%3Croot%3E%3CmxCell%20id%3D%220%22%2F%3E%3CmxCell%20id%3D%221%22%20parent%3D%220%22%2F%3E%3CmxCell%20id%3D%222%22%20value%3D%22%26lt%3Bspan%20style%3D%26quot%3Bcolor%3A%20rgb(51%20%2C%2051%20%2C%2051)%26quot%3B%26gt%3BApplication%26lt%3B%2Fspan%26gt%3B%22%20style%3D%22text%3Bhtml%3D1%3Balign%3Dcenter%3BverticalAlign%3Dmiddle%3Bresizable%3D0%3Bpoints%3D%5B%5D%3Bautosize%3D1%3BstrokeColor%3Dnone%3BfillColor%3Dnone%3B%22%20vertex%3D%221%22%20parent%3D%221%22%3E%3CmxGeometry%20x%3D%22976%22%20y%3D%22679.984375%22%20width%3D%2269%22%20height%3D%2218%22%20as%3D%22geometry%22%2F%3E%3C%2FmxCell%3E%3C%2Froot%3E%3C%2FmxGraphModel%3E&lt;/span&gt;&lt;br&gt;&lt;/h2&gt;&lt;p&gt;&lt;/p&gt;" style="html=1;dropTarget=0;strokeColor=#82b366;fillColor=#d5e8d4;" parent="0mwN60Ps30yAKNXCQcVi-69" vertex="1">
          <mxGeometry width="133" height="48" as="geometry" />
        </mxCell>
        <mxCell id="0mwN60Ps30yAKNXCQcVi-56" value="" style="shape=module;jettyWidth=8;jettyHeight=4;strokeColor=#999999;" parent="0mwN60Ps30yAKNXCQcVi-55" vertex="1">
          <mxGeometry x="1" width="20" height="20" relative="1" as="geometry">
            <mxPoint x="-27" y="7" as="offset" />
          </mxGeometry>
        </mxCell>
        <mxCell id="0mwN60Ps30yAKNXCQcVi-57" value="&lt;span style=&quot;color: rgb(51 , 51 , 51)&quot;&gt;&lt;b&gt;Directory&lt;/b&gt;&lt;/span&gt;" style="text;html=1;align=center;verticalAlign=middle;resizable=0;points=[];autosize=1;strokeColor=none;fillColor=none;" parent="0mwN60Ps30yAKNXCQcVi-69" vertex="1">
          <mxGeometry x="32" y="8.004374999999982" width="63" height="18" as="geometry" />
        </mxCell>
        <mxCell id="0mwN60Ps30yAKNXCQcVi-58" value="&lt;font color=&quot;#333333&quot;&gt;&lt;b&gt;Service&lt;/b&gt;&lt;/font&gt;" style="text;html=1;align=center;verticalAlign=middle;resizable=0;points=[];autosize=1;strokeColor=none;fillColor=none;" parent="0mwN60Ps30yAKNXCQcVi-69" vertex="1">
          <mxGeometry x="35" y="26.004374999999982" width="53" height="18" as="geometry" />
        </mxCell>
        <mxCell id="0mwN60Ps30yAKNXCQcVi-70" value="" style="group" parent="0mwN60Ps30yAKNXCQcVi-47" vertex="1" connectable="0">
          <mxGeometry x="161" y="39.5" width="133" height="48" as="geometry" />
        </mxCell>
        <mxCell id="0mwN60Ps30yAKNXCQcVi-71" value="&lt;p style=&quot;line-height: 0.7&quot;&gt;&lt;/p&gt;&lt;h2 style=&quot;font-size: 13px&quot;&gt;&lt;span style=&quot;color: rgba(0 , 0 , 0 , 0) ; font-family: monospace ; font-size: 0px ; font-weight: 400&quot;&gt;%3CmxGraphModel%3E%3Croot%3E%3CmxCell%20id%3D%220%22%2F%3E%3CmxCell%20id%3D%221%22%20parent%3D%220%22%2F%3E%3CmxCell%20id%3D%222%22%20value%3D%22%26lt%3Bspan%20style%3D%26quot%3Bcolor%3A%20rgb(51%20%2C%2051%20%2C%2051)%26quot%3B%26gt%3BApplication%26lt%3B%2Fspan%26gt%3B%22%20style%3D%22text%3Bhtml%3D1%3Balign%3Dcenter%3BverticalAlign%3Dmiddle%3Bresizable%3D0%3Bpoints%3D%5B%5D%3Bautosize%3D1%3BstrokeColor%3Dnone%3BfillColor%3Dnone%3B%22%20vertex%3D%221%22%20parent%3D%221%22%3E%3CmxGeometry%20x%3D%22976%22%20y%3D%22679.984375%22%20width%3D%2269%22%20height%3D%2218%22%20as%3D%22geometry%22%2F%3E%3C%2FmxCell%3E%3C%2Froot%3E%3C%2FmxGraphModel%3E&lt;/span&gt;&lt;br&gt;&lt;/h2&gt;&lt;p&gt;&lt;/p&gt;" style="html=1;dropTarget=0;strokeColor=#82b366;fillColor=#d5e8d4;" parent="0mwN60Ps30yAKNXCQcVi-70" vertex="1">
          <mxGeometry width="133" height="48" as="geometry" />
        </mxCell>
        <mxCell id="0mwN60Ps30yAKNXCQcVi-72" value="" style="shape=module;jettyWidth=8;jettyHeight=4;strokeColor=#999999;" parent="0mwN60Ps30yAKNXCQcVi-71" vertex="1">
          <mxGeometry x="1" width="20" height="20" relative="1" as="geometry">
            <mxPoint x="-27" y="7" as="offset" />
          </mxGeometry>
        </mxCell>
        <mxCell id="0mwN60Ps30yAKNXCQcVi-73" value="&lt;span style=&quot;color: rgb(51 , 51 , 51)&quot;&gt;&lt;b&gt;Storage&lt;/b&gt;&lt;/span&gt;" style="text;html=1;align=center;verticalAlign=middle;resizable=0;points=[];autosize=1;strokeColor=none;fillColor=none;" parent="0mwN60Ps30yAKNXCQcVi-70" vertex="1">
          <mxGeometry x="36" y="8.004374999999982" width="55" height="18" as="geometry" />
        </mxCell>
        <mxCell id="0mwN60Ps30yAKNXCQcVi-74" value="&lt;font color=&quot;#333333&quot;&gt;&lt;b&gt;Service&lt;/b&gt;&lt;/font&gt;" style="text;html=1;align=center;verticalAlign=middle;resizable=0;points=[];autosize=1;strokeColor=none;fillColor=none;" parent="0mwN60Ps30yAKNXCQcVi-70" vertex="1">
          <mxGeometry x="35" y="26.004374999999982" width="53" height="18" as="geometry" />
        </mxCell>
        <mxCell id="0mwN60Ps30yAKNXCQcVi-75" value="" style="group;fillColor=#d5e8d4;strokeColor=#82b366;" parent="0mwN60Ps30yAKNXCQcVi-47" vertex="1" connectable="0">
          <mxGeometry x="312" y="39.5" width="133" height="48" as="geometry" />
        </mxCell>
        <mxCell id="0mwN60Ps30yAKNXCQcVi-76" value="" style="group" parent="0mwN60Ps30yAKNXCQcVi-75" vertex="1" connectable="0">
          <mxGeometry width="133" height="48" as="geometry" />
        </mxCell>
        <mxCell id="0mwN60Ps30yAKNXCQcVi-77" value="&lt;p style=&quot;line-height: 0.7&quot;&gt;&lt;/p&gt;&lt;h2 style=&quot;font-size: 13px&quot;&gt;&lt;span style=&quot;color: rgba(0 , 0 , 0 , 0) ; font-family: monospace ; font-size: 0px ; font-weight: 400&quot;&gt;%3CmxGraphModel%3E%3Croot%3E%3CmxCell%20id%3D%220%22%2F%3E%3CmxCell%20id%3D%221%22%20parent%3D%220%22%2F%3E%3CmxCell%20id%3D%222%22%20value%3D%22%26lt%3Bspan%20style%3D%26quot%3Bcolor%3A%20rgb(51%20%2C%2051%20%2C%2051)%26quot%3B%26gt%3BApplication%26lt%3B%2Fspan%26gt%3B%22%20style%3D%22text%3Bhtml%3D1%3Balign%3Dcenter%3BverticalAlign%3Dmiddle%3Bresizable%3D0%3Bpoints%3D%5B%5D%3Bautosize%3D1%3BstrokeColor%3Dnone%3BfillColor%3Dnone%3B%22%20vertex%3D%221%22%20parent%3D%221%22%3E%3CmxGeometry%20x%3D%22976%22%20y%3D%22679.984375%22%20width%3D%2269%22%20height%3D%2218%22%20as%3D%22geometry%22%2F%3E%3C%2FmxCell%3E%3C%2Froot%3E%3C%2FmxGraphModel%3E&lt;/span&gt;&lt;br&gt;&lt;/h2&gt;&lt;p&gt;&lt;/p&gt;" style="html=1;dropTarget=0;strokeColor=#82b366;fillColor=#d5e8d4;" parent="0mwN60Ps30yAKNXCQcVi-76" vertex="1">
          <mxGeometry width="133" height="48" as="geometry" />
        </mxCell>
        <mxCell id="0mwN60Ps30yAKNXCQcVi-78" value="" style="shape=module;jettyWidth=8;jettyHeight=4;strokeColor=#999999;" parent="0mwN60Ps30yAKNXCQcVi-77" vertex="1">
          <mxGeometry x="1" width="20" height="20" relative="1" as="geometry">
            <mxPoint x="-27" y="7" as="offset" />
          </mxGeometry>
        </mxCell>
        <mxCell id="0mwN60Ps30yAKNXCQcVi-79" value="&lt;span style=&quot;color: rgb(51 , 51 , 51)&quot;&gt;&lt;b&gt;Config&lt;/b&gt;&lt;/span&gt;" style="text;html=1;align=center;verticalAlign=middle;resizable=0;points=[];autosize=1;strokeColor=none;fillColor=none;" parent="0mwN60Ps30yAKNXCQcVi-76" vertex="1">
          <mxGeometry x="40" y="8.004374999999982" width="48" height="18" as="geometry" />
        </mxCell>
        <mxCell id="0mwN60Ps30yAKNXCQcVi-80" value="&lt;font color=&quot;#333333&quot;&gt;&lt;b&gt;Service&lt;/b&gt;&lt;/font&gt;" style="text;html=1;align=center;verticalAlign=middle;resizable=0;points=[];autosize=1;strokeColor=none;fillColor=none;" parent="0mwN60Ps30yAKNXCQcVi-76" vertex="1">
          <mxGeometry x="35" y="26.004374999999982" width="53" height="18" as="geometry" />
        </mxCell>
        <mxCell id="0mwN60Ps30yAKNXCQcVi-81" value="" style="group" parent="0mwN60Ps30yAKNXCQcVi-47" vertex="1" connectable="0">
          <mxGeometry x="461" y="39.5" width="133" height="48" as="geometry" />
        </mxCell>
        <mxCell id="0mwN60Ps30yAKNXCQcVi-82" value="&lt;p style=&quot;line-height: 0.7&quot;&gt;&lt;/p&gt;&lt;h2 style=&quot;font-size: 13px&quot;&gt;&lt;span style=&quot;color: rgba(0 , 0 , 0 , 0) ; font-family: monospace ; font-size: 0px ; font-weight: 400&quot;&gt;%3CmxGraphModel%3E%3Croot%3E%3CmxCell%20id%3D%220%22%2F%3E%3CmxCell%20id%3D%221%22%20parent%3D%220%22%2F%3E%3CmxCell%20id%3D%222%22%20value%3D%22%26lt%3Bspan%20style%3D%26quot%3Bcolor%3A%20rgb(51%20%2C%2051%20%2C%2051)%26quot%3B%26gt%3BApplication%26lt%3B%2Fspan%26gt%3B%22%20style%3D%22text%3Bhtml%3D1%3Balign%3Dcenter%3BverticalAlign%3Dmiddle%3Bresizable%3D0%3Bpoints%3D%5B%5D%3Bautosize%3D1%3BstrokeColor%3Dnone%3BfillColor%3Dnone%3B%22%20vertex%3D%221%22%20parent%3D%221%22%3E%3CmxGeometry%20x%3D%22976%22%20y%3D%22679.984375%22%20width%3D%2269%22%20height%3D%2218%22%20as%3D%22geometry%22%2F%3E%3C%2FmxCell%3E%3C%2Froot%3E%3C%2FmxGraphModel%3E&lt;/span&gt;&lt;br&gt;&lt;/h2&gt;&lt;p&gt;&lt;/p&gt;" style="html=1;dropTarget=0;strokeColor=#82b366;fillColor=#d5e8d4;" parent="0mwN60Ps30yAKNXCQcVi-81" vertex="1">
          <mxGeometry width="133" height="48" as="geometry" />
        </mxCell>
        <mxCell id="0mwN60Ps30yAKNXCQcVi-83" value="" style="shape=module;jettyWidth=8;jettyHeight=4;strokeColor=#999999;" parent="0mwN60Ps30yAKNXCQcVi-82" vertex="1">
          <mxGeometry x="1" width="20" height="20" relative="1" as="geometry">
            <mxPoint x="-27" y="7" as="offset" />
          </mxGeometry>
        </mxCell>
        <mxCell id="0mwN60Ps30yAKNXCQcVi-84" value="&lt;span style=&quot;color: rgb(51 , 51 , 51)&quot;&gt;&lt;b&gt;Auth&lt;/b&gt;&lt;/span&gt;" style="text;html=1;align=center;verticalAlign=middle;resizable=0;points=[];autosize=1;strokeColor=none;fillColor=none;" parent="0mwN60Ps30yAKNXCQcVi-81" vertex="1">
          <mxGeometry x="45" y="8.004374999999982" width="37" height="18" as="geometry" />
        </mxCell>
        <mxCell id="0mwN60Ps30yAKNXCQcVi-85" value="&lt;font color=&quot;#333333&quot;&gt;&lt;b&gt;Service&lt;/b&gt;&lt;/font&gt;" style="text;html=1;align=center;verticalAlign=middle;resizable=0;points=[];autosize=1;strokeColor=none;fillColor=none;" parent="0mwN60Ps30yAKNXCQcVi-81" vertex="1">
          <mxGeometry x="35" y="26.004374999999982" width="53" height="18" as="geometry" />
        </mxCell>
        <mxCell id="0mwN60Ps30yAKNXCQcVi-86" value="" style="group;fillColor=#d5e8d4;strokeColor=#82b366;" parent="0mwN60Ps30yAKNXCQcVi-47" vertex="1" connectable="0">
          <mxGeometry x="12" y="111" width="133" height="48" as="geometry" />
        </mxCell>
        <mxCell id="0mwN60Ps30yAKNXCQcVi-87" value="" style="group" parent="0mwN60Ps30yAKNXCQcVi-86" vertex="1" connectable="0">
          <mxGeometry width="133" height="48" as="geometry" />
        </mxCell>
        <mxCell id="0mwN60Ps30yAKNXCQcVi-88" value="&lt;p style=&quot;line-height: 0.7&quot;&gt;&lt;/p&gt;&lt;h2 style=&quot;font-size: 13px&quot;&gt;&lt;span style=&quot;color: rgba(0 , 0 , 0 , 0) ; font-family: monospace ; font-size: 0px ; font-weight: 400&quot;&gt;%3CmxGraphModel%3E%3Croot%3E%3CmxCell%20id%3D%220%22%2F%3E%3CmxCell%20id%3D%221%22%20parent%3D%220%22%2F%3E%3CmxCell%20id%3D%222%22%20value%3D%22%26lt%3Bspan%20style%3D%26quot%3Bcolor%3A%20rgb(51%20%2C%2051%20%2C%2051)%26quot%3B%26gt%3BApplication%26lt%3B%2Fspan%26gt%3B%22%20style%3D%22text%3Bhtml%3D1%3Balign%3Dcenter%3BverticalAlign%3Dmiddle%3Bresizable%3D0%3Bpoints%3D%5B%5D%3Bautosize%3D1%3BstrokeColor%3Dnone%3BfillColor%3Dnone%3B%22%20vertex%3D%221%22%20parent%3D%221%22%3E%3CmxGeometry%20x%3D%22976%22%20y%3D%22679.984375%22%20width%3D%2269%22%20height%3D%2218%22%20as%3D%22geometry%22%2F%3E%3C%2FmxCell%3E%3C%2Froot%3E%3C%2FmxGraphModel%3E&lt;/span&gt;&lt;br&gt;&lt;/h2&gt;&lt;p&gt;&lt;/p&gt;" style="html=1;dropTarget=0;strokeColor=#82b366;fillColor=#d5e8d4;" parent="0mwN60Ps30yAKNXCQcVi-87" vertex="1">
          <mxGeometry width="133" height="48" as="geometry" />
        </mxCell>
        <mxCell id="0mwN60Ps30yAKNXCQcVi-89" value="" style="shape=module;jettyWidth=8;jettyHeight=4;strokeColor=#999999;" parent="0mwN60Ps30yAKNXCQcVi-88" vertex="1">
          <mxGeometry x="1" width="20" height="20" relative="1" as="geometry">
            <mxPoint x="-27" y="7" as="offset" />
          </mxGeometry>
        </mxCell>
        <mxCell id="0mwN60Ps30yAKNXCQcVi-90" value="&lt;span style=&quot;color: rgb(51 , 51 , 51)&quot;&gt;&lt;b&gt;Notify&lt;/b&gt;&lt;/span&gt;" style="text;html=1;align=center;verticalAlign=middle;resizable=0;points=[];autosize=1;strokeColor=none;fillColor=none;" parent="0mwN60Ps30yAKNXCQcVi-87" vertex="1">
          <mxGeometry x="42" y="8.004374999999982" width="44" height="18" as="geometry" />
        </mxCell>
        <mxCell id="0mwN60Ps30yAKNXCQcVi-91" value="&lt;font color=&quot;#333333&quot;&gt;&lt;b&gt;Service&lt;/b&gt;&lt;/font&gt;" style="text;html=1;align=center;verticalAlign=middle;resizable=0;points=[];autosize=1;strokeColor=none;fillColor=none;" parent="0mwN60Ps30yAKNXCQcVi-87" vertex="1">
          <mxGeometry x="35" y="26.004374999999982" width="53" height="18" as="geometry" />
        </mxCell>
        <mxCell id="0mwN60Ps30yAKNXCQcVi-92" value="" style="group" parent="0mwN60Ps30yAKNXCQcVi-47" vertex="1" connectable="0">
          <mxGeometry x="161" y="111" width="133" height="48" as="geometry" />
        </mxCell>
        <mxCell id="0mwN60Ps30yAKNXCQcVi-93" value="&lt;p style=&quot;line-height: 0.7&quot;&gt;&lt;/p&gt;&lt;h2 style=&quot;font-size: 13px&quot;&gt;&lt;span style=&quot;color: rgba(0 , 0 , 0 , 0) ; font-family: monospace ; font-size: 0px ; font-weight: 400&quot;&gt;%3CmxGraphModel%3E%3Croot%3E%3CmxCell%20id%3D%220%22%2F%3E%3CmxCell%20id%3D%221%22%20parent%3D%220%22%2F%3E%3CmxCell%20id%3D%222%22%20value%3D%22%26lt%3Bspan%20style%3D%26quot%3Bcolor%3A%20rgb(51%20%2C%2051%20%2C%2051)%26quot%3B%26gt%3BApplication%26lt%3B%2Fspan%26gt%3B%22%20style%3D%22text%3Bhtml%3D1%3Balign%3Dcenter%3BverticalAlign%3Dmiddle%3Bresizable%3D0%3Bpoints%3D%5B%5D%3Bautosize%3D1%3BstrokeColor%3Dnone%3BfillColor%3Dnone%3B%22%20vertex%3D%221%22%20parent%3D%221%22%3E%3CmxGeometry%20x%3D%22976%22%20y%3D%22679.984375%22%20width%3D%2269%22%20height%3D%2218%22%20as%3D%22geometry%22%2F%3E%3C%2FmxCell%3E%3C%2Froot%3E%3C%2FmxGraphModel%3E&lt;/span&gt;&lt;br&gt;&lt;/h2&gt;&lt;p&gt;&lt;/p&gt;" style="html=1;dropTarget=0;strokeColor=#82b366;fillColor=#d5e8d4;" parent="0mwN60Ps30yAKNXCQcVi-92" vertex="1">
          <mxGeometry width="133" height="48" as="geometry" />
        </mxCell>
        <mxCell id="0mwN60Ps30yAKNXCQcVi-94" value="" style="shape=module;jettyWidth=8;jettyHeight=4;strokeColor=#999999;" parent="0mwN60Ps30yAKNXCQcVi-93" vertex="1">
          <mxGeometry x="1" width="20" height="20" relative="1" as="geometry">
            <mxPoint x="-27" y="7" as="offset" />
          </mxGeometry>
        </mxCell>
        <mxCell id="0mwN60Ps30yAKNXCQcVi-95" value="&lt;span style=&quot;color: rgb(51 , 51 , 51)&quot;&gt;&lt;b&gt;Location&lt;/b&gt;&lt;/span&gt;" style="text;html=1;align=center;verticalAlign=middle;resizable=0;points=[];autosize=1;strokeColor=none;fillColor=none;" parent="0mwN60Ps30yAKNXCQcVi-92" vertex="1">
          <mxGeometry x="34" y="8.004374999999982" width="60" height="18" as="geometry" />
        </mxCell>
        <mxCell id="0mwN60Ps30yAKNXCQcVi-96" value="&lt;font color=&quot;#333333&quot;&gt;&lt;b&gt;Service&lt;/b&gt;&lt;/font&gt;" style="text;html=1;align=center;verticalAlign=middle;resizable=0;points=[];autosize=1;strokeColor=none;fillColor=none;" parent="0mwN60Ps30yAKNXCQcVi-92" vertex="1">
          <mxGeometry x="35" y="26.004374999999982" width="53" height="18" as="geometry" />
        </mxCell>
        <mxCell id="0mwN60Ps30yAKNXCQcVi-97" value="" style="group;fillColor=#d5e8d4;strokeColor=#82b366;" parent="0mwN60Ps30yAKNXCQcVi-47" vertex="1" connectable="0">
          <mxGeometry x="312" y="111" width="133" height="48" as="geometry" />
        </mxCell>
        <mxCell id="0mwN60Ps30yAKNXCQcVi-98" value="" style="group" parent="0mwN60Ps30yAKNXCQcVi-97" vertex="1" connectable="0">
          <mxGeometry width="133" height="48" as="geometry" />
        </mxCell>
        <mxCell id="0mwN60Ps30yAKNXCQcVi-99" value="&lt;p style=&quot;line-height: 0.7&quot;&gt;&lt;/p&gt;&lt;h2 style=&quot;font-size: 13px&quot;&gt;&lt;span style=&quot;color: rgba(0 , 0 , 0 , 0) ; font-family: monospace ; font-size: 0px ; font-weight: 400&quot;&gt;%3CmxGraphModel%3E%3Croot%3E%3CmxCell%20id%3D%220%22%2F%3E%3CmxCell%20id%3D%221%22%20parent%3D%220%22%2F%3E%3CmxCell%20id%3D%222%22%20value%3D%22%26lt%3Bspan%20style%3D%26quot%3Bcolor%3A%20rgb(51%20%2C%2051%20%2C%2051)%26quot%3B%26gt%3BApplication%26lt%3B%2Fspan%26gt%3B%22%20style%3D%22text%3Bhtml%3D1%3Balign%3Dcenter%3BverticalAlign%3Dmiddle%3Bresizable%3D0%3Bpoints%3D%5B%5D%3Bautosize%3D1%3BstrokeColor%3Dnone%3BfillColor%3Dnone%3B%22%20vertex%3D%221%22%20parent%3D%221%22%3E%3CmxGeometry%20x%3D%22976%22%20y%3D%22679.984375%22%20width%3D%2269%22%20height%3D%2218%22%20as%3D%22geometry%22%2F%3E%3C%2FmxCell%3E%3C%2Froot%3E%3C%2FmxGraphModel%3E&lt;/span&gt;&lt;br&gt;&lt;/h2&gt;&lt;p&gt;&lt;/p&gt;" style="html=1;dropTarget=0;strokeColor=#82b366;fillColor=#d5e8d4;" parent="0mwN60Ps30yAKNXCQcVi-98" vertex="1">
          <mxGeometry width="133" height="48" as="geometry" />
        </mxCell>
        <mxCell id="0mwN60Ps30yAKNXCQcVi-100" value="" style="shape=module;jettyWidth=8;jettyHeight=4;strokeColor=#999999;" parent="0mwN60Ps30yAKNXCQcVi-99" vertex="1">
          <mxGeometry x="1" width="20" height="20" relative="1" as="geometry">
            <mxPoint x="-27" y="7" as="offset" />
          </mxGeometry>
        </mxCell>
        <mxCell id="0mwN60Ps30yAKNXCQcVi-101" value="&lt;span style=&quot;color: rgb(51 , 51 , 51)&quot;&gt;&lt;b&gt;Menu&lt;/b&gt;&lt;/span&gt;" style="text;html=1;align=center;verticalAlign=middle;resizable=0;points=[];autosize=1;strokeColor=none;fillColor=none;" parent="0mwN60Ps30yAKNXCQcVi-98" vertex="1">
          <mxGeometry x="43" y="8.004374999999982" width="41" height="18" as="geometry" />
        </mxCell>
        <mxCell id="0mwN60Ps30yAKNXCQcVi-102" value="&lt;font color=&quot;#333333&quot;&gt;&lt;b&gt;Service&lt;/b&gt;&lt;/font&gt;" style="text;html=1;align=center;verticalAlign=middle;resizable=0;points=[];autosize=1;strokeColor=none;fillColor=none;" parent="0mwN60Ps30yAKNXCQcVi-98" vertex="1">
          <mxGeometry x="35" y="26.004374999999982" width="53" height="18" as="geometry" />
        </mxCell>
        <mxCell id="0mwN60Ps30yAKNXCQcVi-103" value="" style="group" parent="0mwN60Ps30yAKNXCQcVi-47" vertex="1" connectable="0">
          <mxGeometry x="461" y="111" width="133" height="48" as="geometry" />
        </mxCell>
        <mxCell id="0mwN60Ps30yAKNXCQcVi-104" value="&lt;p style=&quot;line-height: 0.7&quot;&gt;&lt;/p&gt;&lt;h2 style=&quot;font-size: 13px&quot;&gt;&lt;span style=&quot;color: rgba(0 , 0 , 0 , 0) ; font-family: monospace ; font-size: 0px ; font-weight: 400&quot;&gt;%3CmxGraphModel%3E%3Croot%3E%3CmxCell%20id%3D%220%22%2F%3E%3CmxCell%20id%3D%221%22%20parent%3D%220%22%2F%3E%3CmxCell%20id%3D%222%22%20value%3D%22%26lt%3Bspan%20style%3D%26quot%3Bcolor%3A%20rgb(51%20%2C%2051%20%2C%2051)%26quot%3B%26gt%3BApplication%26lt%3B%2Fspan%26gt%3B%22%20style%3D%22text%3Bhtml%3D1%3Balign%3Dcenter%3BverticalAlign%3Dmiddle%3Bresizable%3D0%3Bpoints%3D%5B%5D%3Bautosize%3D1%3BstrokeColor%3Dnone%3BfillColor%3Dnone%3B%22%20vertex%3D%221%22%20parent%3D%221%22%3E%3CmxGeometry%20x%3D%22976%22%20y%3D%22679.984375%22%20width%3D%2269%22%20height%3D%2218%22%20as%3D%22geometry%22%2F%3E%3C%2FmxCell%3E%3C%2Froot%3E%3C%2FmxGraphModel%3E&lt;/span&gt;&lt;br&gt;&lt;/h2&gt;&lt;p&gt;&lt;/p&gt;" style="html=1;dropTarget=0;strokeColor=#82b366;fillColor=#d5e8d4;" parent="0mwN60Ps30yAKNXCQcVi-103" vertex="1">
          <mxGeometry width="133" height="48" as="geometry" />
        </mxCell>
        <mxCell id="0mwN60Ps30yAKNXCQcVi-105" value="" style="shape=module;jettyWidth=8;jettyHeight=4;strokeColor=#999999;" parent="0mwN60Ps30yAKNXCQcVi-104" vertex="1">
          <mxGeometry x="1" width="20" height="20" relative="1" as="geometry">
            <mxPoint x="-27" y="7" as="offset" />
          </mxGeometry>
        </mxCell>
        <mxCell id="0mwN60Ps30yAKNXCQcVi-106" value="&lt;font color=&quot;#333333&quot;&gt;&lt;b&gt;Cronjob&lt;/b&gt;&lt;/font&gt;" style="text;html=1;align=center;verticalAlign=middle;resizable=0;points=[];autosize=1;strokeColor=none;fillColor=none;" parent="0mwN60Ps30yAKNXCQcVi-103" vertex="1">
          <mxGeometry x="36" y="8.004374999999982" width="56" height="18" as="geometry" />
        </mxCell>
        <mxCell id="0mwN60Ps30yAKNXCQcVi-107" value="&lt;font color=&quot;#333333&quot;&gt;&lt;b&gt;Service&lt;/b&gt;&lt;/font&gt;" style="text;html=1;align=center;verticalAlign=middle;resizable=0;points=[];autosize=1;strokeColor=none;fillColor=none;" parent="0mwN60Ps30yAKNXCQcVi-103" vertex="1">
          <mxGeometry x="35" y="26.004374999999982" width="53" height="18" as="geometry" />
        </mxCell>
        <mxCell id="0mwN60Ps30yAKNXCQcVi-108" value="" style="group" parent="1" vertex="1" connectable="0">
          <mxGeometry x="842" y="851" width="718" height="126" as="geometry" />
        </mxCell>
        <mxCell id="0mwN60Ps30yAKNXCQcVi-109" value="" style="shape=folder;fontStyle=1;spacingTop=10;tabWidth=102;tabHeight=23;tabPosition=left;html=1;strokeColor=#9673a6;fillColor=#e1d5e7;" parent="0mwN60Ps30yAKNXCQcVi-108" vertex="1">
          <mxGeometry width="161" height="105" as="geometry" />
        </mxCell>
        <mxCell id="0mwN60Ps30yAKNXCQcVi-110" value="&lt;span style=&quot;color: rgb(51 , 51 , 51)&quot;&gt;&lt;b&gt;Jobworkers&lt;/b&gt;&lt;/span&gt;" style="text;html=1;align=center;verticalAlign=middle;resizable=0;points=[];autosize=1;strokeColor=none;fillColor=none;" parent="0mwN60Ps30yAKNXCQcVi-108" vertex="1">
          <mxGeometry x="14" y="3.004375" width="77" height="18" as="geometry" />
        </mxCell>
        <mxCell id="0mwN60Ps30yAKNXCQcVi-115" value="" style="group;fillColor=#e1d5e7;strokeColor=#9673a6;" parent="0mwN60Ps30yAKNXCQcVi-108" vertex="1" connectable="0">
          <mxGeometry x="12" y="39.5" width="133" height="48" as="geometry" />
        </mxCell>
        <mxCell id="0mwN60Ps30yAKNXCQcVi-116" value="&lt;p style=&quot;line-height: 0.7&quot;&gt;&lt;/p&gt;&lt;h2 style=&quot;font-size: 13px&quot;&gt;&lt;span style=&quot;color: rgba(0 , 0 , 0 , 0) ; font-family: monospace ; font-size: 0px ; font-weight: 400&quot;&gt;%3CmxGraphModel%3E%3Croot%3E%3CmxCell%20id%3D%220%22%2F%3E%3CmxCell%20id%3D%221%22%20parent%3D%220%22%2F%3E%3CmxCell%20id%3D%222%22%20value%3D%22%26lt%3Bspan%20style%3D%26quot%3Bcolor%3A%20rgb(51%20%2C%2051%20%2C%2051)%26quot%3B%26gt%3BApplication%26lt%3B%2Fspan%26gt%3B%22%20style%3D%22text%3Bhtml%3D1%3Balign%3Dcenter%3BverticalAlign%3Dmiddle%3Bresizable%3D0%3Bpoints%3D%5B%5D%3Bautosize%3D1%3BstrokeColor%3Dnone%3BfillColor%3Dnone%3B%22%20vertex%3D%221%22%20parent%3D%221%22%3E%3CmxGeometry%20x%3D%22976%22%20y%3D%22679.984375%22%20width%3D%2269%22%20height%3D%2218%22%20as%3D%22geometry%22%2F%3E%3C%2FmxCell%3E%3C%2Froot%3E%3C%2FmxGraphModel%3E&lt;/span&gt;&lt;br&gt;&lt;/h2&gt;&lt;p&gt;&lt;/p&gt;" style="html=1;dropTarget=0;strokeColor=#9673a6;fillColor=#e1d5e7;" parent="0mwN60Ps30yAKNXCQcVi-115" vertex="1">
          <mxGeometry width="133" height="48" as="geometry" />
        </mxCell>
        <mxCell id="0mwN60Ps30yAKNXCQcVi-117" value="" style="shape=module;jettyWidth=8;jettyHeight=4;strokeColor=#999999;" parent="0mwN60Ps30yAKNXCQcVi-116" vertex="1">
          <mxGeometry x="1" width="20" height="20" relative="1" as="geometry">
            <mxPoint x="-27" y="7" as="offset" />
          </mxGeometry>
        </mxCell>
        <mxCell id="0mwN60Ps30yAKNXCQcVi-118" value="&lt;span style=&quot;color: rgb(51 , 51 , 51)&quot;&gt;&lt;b&gt;Notify&lt;/b&gt;&lt;/span&gt;" style="text;html=1;align=center;verticalAlign=middle;resizable=0;points=[];autosize=1;strokeColor=none;fillColor=none;" parent="0mwN60Ps30yAKNXCQcVi-115" vertex="1">
          <mxGeometry x="42" y="8.004374999999982" width="44" height="18" as="geometry" />
        </mxCell>
        <mxCell id="0mwN60Ps30yAKNXCQcVi-119" value="&lt;b style=&quot;color: rgb(51 , 51 , 51)&quot;&gt;Jobworker&lt;/b&gt;" style="text;html=1;align=center;verticalAlign=middle;resizable=0;points=[];autosize=1;strokeColor=none;fillColor=none;" parent="0mwN60Ps30yAKNXCQcVi-115" vertex="1">
          <mxGeometry x="31" y="26.004374999999982" width="71" height="18" as="geometry" />
        </mxCell>
        <mxCell id="0mwN60Ps30yAKNXCQcVi-129" value="" style="group" parent="1" vertex="1" connectable="0">
          <mxGeometry x="1025" y="851" width="718" height="126" as="geometry" />
        </mxCell>
        <mxCell id="0mwN60Ps30yAKNXCQcVi-130" value="" style="shape=folder;fontStyle=1;spacingTop=10;tabWidth=102;tabHeight=23;tabPosition=left;html=1;strokeColor=#23445d;fillColor=#bac8d3;" parent="0mwN60Ps30yAKNXCQcVi-129" vertex="1">
          <mxGeometry width="161" height="105" as="geometry" />
        </mxCell>
        <mxCell id="0mwN60Ps30yAKNXCQcVi-131" value="&lt;span style=&quot;color: rgb(51 , 51 , 51)&quot;&gt;&lt;b&gt;Database&lt;/b&gt;&lt;/span&gt;" style="text;html=1;align=center;verticalAlign=middle;resizable=0;points=[];autosize=1;strokeColor=none;fillColor=none;" parent="0mwN60Ps30yAKNXCQcVi-129" vertex="1">
          <mxGeometry x="21" y="3.004375" width="63" height="18" as="geometry" />
        </mxCell>
        <mxCell id="0mwN60Ps30yAKNXCQcVi-144" value="" style="group;fillColor=#bac8d3;strokeColor=#23445d;" parent="0mwN60Ps30yAKNXCQcVi-129" vertex="1" connectable="0">
          <mxGeometry x="12" y="39.5" width="133" height="48" as="geometry" />
        </mxCell>
        <mxCell id="0mwN60Ps30yAKNXCQcVi-145" value="" style="group;fillColor=#e1d5e7;strokeColor=#9673a6;" parent="0mwN60Ps30yAKNXCQcVi-144" vertex="1" connectable="0">
          <mxGeometry width="133" height="48" as="geometry" />
        </mxCell>
        <mxCell id="0mwN60Ps30yAKNXCQcVi-146" value="&lt;p style=&quot;line-height: 0.7&quot;&gt;&lt;/p&gt;&lt;h2 style=&quot;font-size: 13px&quot;&gt;&lt;span style=&quot;color: rgba(0 , 0 , 0 , 0) ; font-family: monospace ; font-size: 0px ; font-weight: 400&quot;&gt;%3CmxGraphModel%3E%3Croot%3E%3CmxCell%20id%3D%220%22%2F%3E%3CmxCell%20id%3D%221%22%20parent%3D%220%22%2F%3E%3CmxCell%20id%3D%222%22%20value%3D%22%26lt%3Bspan%20style%3D%26quot%3Bcolor%3A%20rgb(51%20%2C%2051%20%2C%2051)%26quot%3B%26gt%3BApplication%26lt%3B%2Fspan%26gt%3B%22%20style%3D%22text%3Bhtml%3D1%3Balign%3Dcenter%3BverticalAlign%3Dmiddle%3Bresizable%3D0%3Bpoints%3D%5B%5D%3Bautosize%3D1%3BstrokeColor%3Dnone%3BfillColor%3Dnone%3B%22%20vertex%3D%221%22%20parent%3D%221%22%3E%3CmxGeometry%20x%3D%22976%22%20y%3D%22679.984375%22%20width%3D%2269%22%20height%3D%2218%22%20as%3D%22geometry%22%2F%3E%3C%2FmxCell%3E%3C%2Froot%3E%3C%2FmxGraphModel%3E&lt;/span&gt;&lt;br&gt;&lt;/h2&gt;&lt;p&gt;&lt;/p&gt;" style="html=1;dropTarget=0;strokeColor=#23445d;fillColor=#bac8d3;" parent="0mwN60Ps30yAKNXCQcVi-145" vertex="1">
          <mxGeometry width="133" height="48" as="geometry" />
        </mxCell>
        <mxCell id="0mwN60Ps30yAKNXCQcVi-147" value="" style="shape=module;jettyWidth=8;jettyHeight=4;strokeColor=#999999;" parent="0mwN60Ps30yAKNXCQcVi-146" vertex="1">
          <mxGeometry x="1" width="20" height="20" relative="1" as="geometry">
            <mxPoint x="-27" y="7" as="offset" />
          </mxGeometry>
        </mxCell>
        <mxCell id="0mwN60Ps30yAKNXCQcVi-148" value="&lt;font color=&quot;#333333&quot;&gt;&lt;b&gt;PostgreSQL&lt;/b&gt;&lt;/font&gt;" style="text;html=1;align=center;verticalAlign=middle;resizable=0;points=[];autosize=1;strokeColor=none;fillColor=none;" parent="0mwN60Ps30yAKNXCQcVi-145" vertex="1">
          <mxGeometry x="25" y="8.004374999999982" width="79" height="18" as="geometry" />
        </mxCell>
        <mxCell id="0mwN60Ps30yAKNXCQcVi-149" value="&lt;b style=&quot;color: rgb(51 , 51 , 51)&quot;&gt;Database&lt;/b&gt;" style="text;html=1;align=center;verticalAlign=middle;resizable=0;points=[];autosize=1;strokeColor=none;fillColor=none;" parent="0mwN60Ps30yAKNXCQcVi-144" vertex="1">
          <mxGeometry x="35" y="27.504374999999982" width="63" height="18" as="geometry" />
        </mxCell>
        <mxCell id="0mwN60Ps30yAKNXCQcVi-152" value="" style="rounded=0;whiteSpace=wrap;html=1;" parent="1" vertex="1">
          <mxGeometry x="1501" y="510" width="217" height="488" as="geometry" />
        </mxCell>
        <mxCell id="0mwN60Ps30yAKNXCQcVi-153" value="Các thành phần ISCS tích hợp" style="text;html=1;strokeColor=none;fillColor=none;align=center;verticalAlign=middle;whiteSpace=wrap;rounded=0;fontColor=#4A4A4A;fontStyle=2" parent="1" vertex="1">
          <mxGeometry x="1517" y="962" width="190" height="30" as="geometry" />
        </mxCell>
        <mxCell id="0mwN60Ps30yAKNXCQcVi-154" value="" style="shape=folder;fontStyle=1;spacingTop=10;tabWidth=87;tabHeight=20;tabPosition=left;html=1;fontSize=13;strokeColor=#10739e;fillColor=#b1ddf0;" parent="1" vertex="1">
          <mxGeometry x="1514" y="530" width="184" height="161" as="geometry" />
        </mxCell>
        <mxCell id="0mwN60Ps30yAKNXCQcVi-155" value="&lt;span style=&quot;color: rgb(51 , 51 , 51)&quot;&gt;&lt;b&gt;VNPT IDG&lt;/b&gt;&lt;/span&gt;" style="text;html=1;align=center;verticalAlign=middle;resizable=0;points=[];autosize=1;strokeColor=none;fillColor=none;" parent="1" vertex="1">
          <mxGeometry x="1524" y="531.004375" width="67" height="18" as="geometry" />
        </mxCell>
        <mxCell id="0mwN60Ps30yAKNXCQcVi-159" value="" style="group" parent="1" vertex="1" connectable="0">
          <mxGeometry x="1527.5" y="568" width="70" height="50" as="geometry" />
        </mxCell>
        <mxCell id="0mwN60Ps30yAKNXCQcVi-156" value="" style="shape=folder;fontStyle=1;spacingTop=10;tabWidth=38;tabHeight=7;tabPosition=left;html=1;fontSize=13;strokeColor=#10739e;fillColor=#b1ddf0;" parent="0mwN60Ps30yAKNXCQcVi-159" vertex="1">
          <mxGeometry width="70" height="50" as="geometry" />
        </mxCell>
        <mxCell id="0mwN60Ps30yAKNXCQcVi-158" value="&lt;span style=&quot;color: rgb(51 , 51 , 51)&quot;&gt;&lt;b&gt;MinIO&lt;/b&gt;&lt;/span&gt;" style="text;html=1;align=center;verticalAlign=middle;resizable=0;points=[];autosize=1;strokeColor=none;fillColor=none;" parent="0mwN60Ps30yAKNXCQcVi-159" vertex="1">
          <mxGeometry x="13.5" y="20.004374999999982" width="43" height="18" as="geometry" />
        </mxCell>
        <mxCell id="0mwN60Ps30yAKNXCQcVi-160" value="" style="group" parent="1" vertex="1" connectable="0">
          <mxGeometry x="1613" y="568" width="70" height="50" as="geometry" />
        </mxCell>
        <mxCell id="0mwN60Ps30yAKNXCQcVi-161" value="" style="shape=folder;fontStyle=1;spacingTop=10;tabWidth=38;tabHeight=7;tabPosition=left;html=1;fontSize=13;strokeColor=#10739e;fillColor=#b1ddf0;" parent="0mwN60Ps30yAKNXCQcVi-160" vertex="1">
          <mxGeometry width="70" height="50" as="geometry" />
        </mxCell>
        <mxCell id="0mwN60Ps30yAKNXCQcVi-162" value="&lt;span style=&quot;color: rgb(51 , 51 , 51)&quot;&gt;&lt;b&gt;Redis&lt;/b&gt;&lt;/span&gt;" style="text;html=1;align=center;verticalAlign=middle;resizable=0;points=[];autosize=1;strokeColor=none;fillColor=none;" parent="0mwN60Ps30yAKNXCQcVi-160" vertex="1">
          <mxGeometry x="13.5" y="20.004374999999982" width="43" height="18" as="geometry" />
        </mxCell>
        <mxCell id="0mwN60Ps30yAKNXCQcVi-163" value="" style="group" parent="1" vertex="1" connectable="0">
          <mxGeometry x="1528" y="631" width="70" height="50" as="geometry" />
        </mxCell>
        <mxCell id="0mwN60Ps30yAKNXCQcVi-164" value="" style="shape=folder;fontStyle=1;spacingTop=10;tabWidth=38;tabHeight=7;tabPosition=left;html=1;fontSize=13;strokeColor=#10739e;fillColor=#b1ddf0;" parent="0mwN60Ps30yAKNXCQcVi-163" vertex="1">
          <mxGeometry width="70" height="50" as="geometry" />
        </mxCell>
        <mxCell id="0mwN60Ps30yAKNXCQcVi-165" value="&lt;span style=&quot;color: rgb(51 , 51 , 51)&quot;&gt;&lt;b&gt;Kafka&lt;/b&gt;&lt;/span&gt;" style="text;html=1;align=center;verticalAlign=middle;resizable=0;points=[];autosize=1;strokeColor=none;fillColor=none;" parent="0mwN60Ps30yAKNXCQcVi-163" vertex="1">
          <mxGeometry x="13.5" y="20.004374999999982" width="43" height="18" as="geometry" />
        </mxCell>
        <mxCell id="0mwN60Ps30yAKNXCQcVi-166" value="" style="group" parent="1" vertex="1" connectable="0">
          <mxGeometry x="1514" y="710" width="86" height="50" as="geometry" />
        </mxCell>
        <mxCell id="0mwN60Ps30yAKNXCQcVi-167" value="" style="shape=folder;fontStyle=1;spacingTop=10;tabWidth=38;tabHeight=7;tabPosition=left;html=1;fontSize=13;strokeColor=#2D7600;fillColor=#60a917;fontColor=#ffffff;" parent="0mwN60Ps30yAKNXCQcVi-166" vertex="1">
          <mxGeometry width="86" height="50" as="geometry" />
        </mxCell>
        <mxCell id="0mwN60Ps30yAKNXCQcVi-168" value="&lt;b&gt;&lt;font color=&quot;#ffffff&quot;&gt;Google FCM&lt;/font&gt;&lt;/b&gt;" style="text;html=1;align=center;verticalAlign=middle;resizable=0;points=[];autosize=1;strokeColor=none;fillColor=none;" parent="0mwN60Ps30yAKNXCQcVi-166" vertex="1">
          <mxGeometry x="3.7371273291925466" y="20.004374999999982" width="81" height="18" as="geometry" />
        </mxCell>
        <mxCell id="0mwN60Ps30yAKNXCQcVi-175" value="" style="group" parent="1" vertex="1" connectable="0">
          <mxGeometry x="1611" y="710" width="86" height="50" as="geometry" />
        </mxCell>
        <mxCell id="0mwN60Ps30yAKNXCQcVi-176" value="" style="shape=folder;fontStyle=1;spacingTop=10;tabWidth=38;tabHeight=7;tabPosition=left;html=1;fontSize=13;strokeColor=#001DBC;fillColor=#0050ef;fontColor=#ffffff;" parent="0mwN60Ps30yAKNXCQcVi-175" vertex="1">
          <mxGeometry width="86" height="50" as="geometry" />
        </mxCell>
        <mxCell id="0mwN60Ps30yAKNXCQcVi-177" value="&lt;span style=&quot;&quot;&gt;&lt;b&gt;Email Server&lt;/b&gt;&lt;/span&gt;" style="text;html=1;align=center;verticalAlign=middle;resizable=0;points=[];autosize=1;strokeColor=none;fillColor=none;fontColor=#FFFFFF;" parent="0mwN60Ps30yAKNXCQcVi-175" vertex="1">
          <mxGeometry x="2.7371273291925466" y="20.004374999999982" width="83" height="18" as="geometry" />
        </mxCell>
        <mxCell id="0mwN60Ps30yAKNXCQcVi-178" value="" style="group" parent="1" vertex="1" connectable="0">
          <mxGeometry x="1514" y="772" width="184" height="50" as="geometry" />
        </mxCell>
        <mxCell id="0mwN60Ps30yAKNXCQcVi-179" value="" style="shape=folder;fontStyle=1;spacingTop=10;tabWidth=38;tabHeight=7;tabPosition=left;html=1;fontSize=13;strokeColor=#C73500;fillColor=#fa6800;fontColor=#000000;" parent="0mwN60Ps30yAKNXCQcVi-178" vertex="1">
          <mxGeometry width="184" height="50" as="geometry" />
        </mxCell>
        <mxCell id="0mwN60Ps30yAKNXCQcVi-180" value="&lt;b&gt;&lt;font color=&quot;#ffffff&quot;&gt;SMS Brandname&lt;/font&gt;&lt;/b&gt;" style="text;html=1;align=center;verticalAlign=middle;resizable=0;points=[];autosize=1;strokeColor=none;fillColor=none;" parent="0mwN60Ps30yAKNXCQcVi-178" vertex="1">
          <mxGeometry x="39.497127329192544" y="21.004374999999982" width="105" height="18" as="geometry" />
        </mxCell>
        <mxCell id="0mwN60Ps30yAKNXCQcVi-181" value="" style="group" parent="1" vertex="1" connectable="0">
          <mxGeometry x="1613" y="631" width="70" height="50" as="geometry" />
        </mxCell>
        <mxCell id="0mwN60Ps30yAKNXCQcVi-182" value="" style="shape=folder;fontStyle=1;spacingTop=10;tabWidth=38;tabHeight=7;tabPosition=left;html=1;fontSize=13;strokeColor=#10739e;fillColor=#b1ddf0;" parent="0mwN60Ps30yAKNXCQcVi-181" vertex="1">
          <mxGeometry width="70" height="50" as="geometry" />
        </mxCell>
        <mxCell id="0mwN60Ps30yAKNXCQcVi-183" value="&lt;span style=&quot;color: rgb(51 , 51 , 51)&quot;&gt;&lt;b&gt;MongoDB&lt;/b&gt;&lt;/span&gt;" style="text;html=1;align=center;verticalAlign=middle;resizable=0;points=[];autosize=1;strokeColor=none;fillColor=none;" parent="0mwN60Ps30yAKNXCQcVi-181" vertex="1">
          <mxGeometry x="1.5" y="20.004374999999982" width="67" height="18" as="geometry" />
        </mxCell>
      </root>
    </mxGraphModel>
  </diagram>
  <diagram id="Fw4EIj7ziZnfB3uq1ani" name="Page-2">
    <mxGraphModel dx="1088" dy="594" grid="0" gridSize="10" guides="1" tooltips="1" connect="1" arrows="1" fold="1" page="1" pageScale="1" pageWidth="4681" pageHeight="3300" math="0" shadow="0">
      <root>
        <mxCell id="MXRZr6SWhceYkOSyRdzz-0" />
        <mxCell id="MXRZr6SWhceYkOSyRdzz-1" parent="MXRZr6SWhceYkOSyRdzz-0" />
        <mxCell id="MXRZr6SWhceYkOSyRdzz-2" value="" style="shape=image;verticalLabelPosition=bottom;labelBackgroundColor=default;verticalAlign=top;aspect=fixed;imageAspect=0;image=data:image/png,iVBORw0KGgoAAAANSUhEUgAAAncAAAFJCAYAAAD5UgsiAAAAAXNSR0IArs4c6QAAAARnQU1BAACxjwv8YQUAAAAJcEhZcwAADsMAAA7DAcdvqGQAADgOSURBVHhe7Z1brCVXnZ8b00LwwEW8A3nCM2FGLQub2O7BNCDs7jyEkCDH9IC5yN22CUxGwzRNIo1pnBaBgXi4BFkWNnjaPRbDkB6P8eRhsA3YbSuCGHMx7SYiiBiHmbGdYKyWkQXtyvnV2b99/nv12tfateuyv5/06exaa9Wq2qdq7/rOqsvZVhBCCCGEkN4EuSOEEEII6VGQO0IIIYSQHgW5I4QQUluOHz9eXH311cWpU6cGJfOl6vyErGOQO0IIIbUFOSNk9UHuCCGE1JYod08//XT5+qyzziq2bdtW3HPPPYNWm+22b99elh86dKi48sory3k8/+OPP17+vPbaa4fzq93p06cHPRBCHOSOEEJIbYlyd/jw4RFpO+ecc4oTJ04UTzzxRLFnz55S9iyA4+QuNz8hZDTIHSGEkNqSyplH6yxxR48eHRFAJU6n86u9RuskhHv37kXuCMkEuSOEEFJbLGePPPLIcHTO0UieZE14RE6ZJHeeH7kjZHyQO0IIIbVlnJwtOnKH3BEyPcgdIYSQ2hJFbRnX3CF3hEwPckcIIaS2RLmb5W7ZHTt2FNdffz1yR0iFIHeEEEJaFY3w6ZEnPOaEkMWC3BFCCGk0J0+eLE/RajRP7Nu3rxy1I4QsFuSOEEIIIaRHQe4IIYQQQnoU5I4QQgghpEdB7gghpCe59dZbh//BYZH4ocKaP97lumh0LZ3uaH3ssccGJfNl2euzzOh3PW199P4PHjzI9YNk5UHuSKeixx9cdtll5ZfmpMR2evyCHquggwMhfc0yRKJtMhXXp22ZRe6UqsJNyCJB7kinsojcEbIOkQjFP2D02s+Ti8+US6VN8qHHjkhA3P7IkSPDdgcOHCjLL7nkkuEI3Ljn1enztnv37uLiiy8u299///3DkTutX1yfOJ/WwXV6zp2eXTdufbTe6fK/8Y1vlP1o+Vqe/piLdc8++2xZH6PvCD04We3e9KY3Dd+b+vCdu7Fc0fvxs/g+8IEPDJ/Fl1sfy5yWo7pFRy8JWSTIHWltdMDRF6XQa4/AaVpfrvoS1henDiKT2n33u98dGbmL8+inpgnpclKBsGT5Ab+SJ4vIOLmTjKQjd5IVCZjlJbaL/fk/TViMouzlTsvGcs0vyXIb9T1ufbze05YvGUzXM8bvJ8qllql10Lrk5o/vzfO7Lq6zBFDtHnroobJvRfWaT/WErCLIHWll9IWtL059iQqNHujLVQex9HSrvvwVlWnEYFw79RlfK5pXX8pty8Of3wY9Z+NIP9ja1aP9fNIp2ShG8bUySe6idLmd5otipM+UpjWf1iNKpaZTuUvbpJm0PlrOpP9Rm/advlcnt15KWh77S/uSxGn6kUceGf7rNK2n1yfKnN6T30cb8vBNz8vuk9AftuUKoV90MfoitdzFRGlLE+vGyZ2mVa76Nqfcbj//H9BTHv78WUuVu5zESIx8mlD4wcBp22kylbbz6JblSvF8+nylchSn9blL57UMxXU9dOjQ2PWJMuWMW37u96KoPIqrI2GL5Vpf9Se5U/+xr1Tu4vqLm2++uVxvpY1yVzz637P7JnSfH930/E25y1VCP+iq3Cn6MvQXpV4rUdoUfUnHL9R4ujYnd6ILp2L5XPabZcud9vM4cpfKi6YtJvG1IjGaR+40rXLLleVM86VyFafdLkqZon71+UyXM259po3czSJ3aTsnt/6zjNxpnnEjkQpyB6sEuVsDuix3TpSzKG16LVFTuZLW5eRO0ypH7qBJli132p8lGlFqLHeWHwuU6nyNmuZTu3nkzu1y/enzlcqRpiVA6isnOFHuZl2fWZefvgfHy7Egah3UzqNwuWvu4jzp71TtvM5ah1e/+tVlO79X1cfppoPc9Rvkbg3oqtzpC11floq+SHPX3Ol1lDvNM23kLjeP6tSmTeFz2W+WLXeKBML7teVDpwr1mTh27NiI9Kit6vRZuO6664ZiIslReXp3qhLlLvavEXNLkj5vObnTT4lReupSy1Fb1+nuVK2rlztufdLlp3fLTpM7RW0lhZp/3rtlVXf99deX30u59YmnZPWdo7rYT9NB7voNcrcGdFXu9GUp6dIXpZCExXJLnMrd5oYbbhhKXGyX3i2r+VSuedp6ipbPZb+pQ+60X/PA3PZFgqrvqbaM2inIXb9B7taArsrduofPZb+pQ+6UNorEOqetwo3c9Rvkbg1A7roZPpfN84bXXjAcFV6EXTv/WXH60W9l+65L7giZJchd81z8+p1nXKYwDxddcF7xzE/vz/aN3LUEHQRyG29WNH+uX4HcdTN8LptHX7xVRsDK+ZE70kCeeuqpwat8kLvmef7zn1f86le/GmyR+fP85z+/+NVPkLtWI0GrknL+TL8Cuetm+Fw2D3JHupqrrrqqfFbgk08+OSgZDXLXPMjdGoDckTR8LpsHuSNdjR4Ls3///uIlL3lJcc0115whechd8yB3awByR9LwuVw96TV2/+QVLx+Z3rVr11yyh9yRpjNO8pC71ZNeY/eKje+X54Tvl4suuqh45plnyu0zS5C7FpJeY5c7iMwTzZNbjkDuuhk+l6tn2kjdvCN50+Tu0KFrylNnX//61wdzFOVrla17uZ5b95GPfGSh8rvuumu4nb75zW+Wz+Zb9/JPfOITxbnnnlu84AUvKE/Z/vCGjT8ukLuVMm2krpS1OUbykLsWUsrYhEyrT9MFudMz5vRP/fV8OT1zTs+hU5nWXbjMbV0en0OXPvsuPrcu/tcJlcdlpMuNz7kbt9xZ1qfO8LlcPchde8qRu+WWI3fNg9ytAZKESZlWn6Zsn1mOaJPcSagkVop+Srr009KmLyWJk/+zhKJndvkBxqqP0ub+xCS5i8tN+1ef6l/T865PnWnj5/L439y0ISybknv0v/zHYbleq0zc89efH5Y/8cO7ij1v2DzVGcsjT//kvuLKd/yrEr1WmfqTGKns1P/aKtvxT19ZnPjmX43MH9lcv7PGLmsaq5a7jc4GLQmpJzotq+8yTss2D3K3BpQyNiHT6tOU7TPLEW2SuzjqJUGygCkWskcffXREphwLl9rFaYvZJLmLy411MfOuT91pu9xFGbv2wFVlmYhiZdlSudq4PEV1l+y6oHjsB3cNp8/amCfK3Fabr43MG6kqd1xzR/oSX2v34he/mBsqWgLX3K0B63jNXSpVkqn4noUlTCKVnjZVuerVjxNH3SbJXbrcOO3Muz51p81y92/+xcWlaGlkTui1yvT7iWJlIZMIRnlL2Ryp25x3c7Rv53AbxDILYpTGKHwuP/SBDTkcSKhen/4/Zy5zFko5qyBgyB1pKjwKpf1wt+waoINQlZTzZ/oVbZY7ydm0uJ3m0/yWO0/n5C4KXLrcdNqZd33qTpvl7sB7Ly9H1TQt9PqGP/0PQxlTW5+SlZBZusaNqJ28978W5/zOK0vJc9tjN32iFDfNv1n/W2V9fK2Rw6vfuXlKV6dvPa+FblMa6ztNOy3l/MgdaSA8xLj9IHdrwDrKnYTM17gpEibV65/8p6ImFLextMVr7vRaZapTm9hu2nJFrnza+tSZNsudRE5CJfGSQEnCbvvify5PpVqkotBF0Uv7FLHe/f3vb/+3chni7770uWFfqo+na91eo3epRMYRv9NhebOC3JG+BrlrHuRuDVhHuVNUpnUX6fV4Lo/zWNxcp/kdzyPJu+GGG4bzTVturJt3fepMm+VOQiVhuuzNF5fotessVirblK6t6+jidMQ3Vbg/j8RZ5DRSaIFTP5JIbw9h2asqd1xzR9YlyN3q4Zq7NYDn3JFpabvc+bX2vTgtsfJp1rhPmyOf2brLNqI+3N+Rz3ykLLOsqSwVvtxds1XlrpSxCcI1rT5N2R65Iy0Mcrd6uFt2DdDBalKm1acp22eWIybJna7LuOmmmwZTpE1pu9xJ4CRZQq+j3FnULFnCp14lab7LNhJFLpUzlR3aEDSVzXLNXTn943sH67Ele9OYJm/T6tOU7ZE70sI0JXdP3PKu4rxzzy1e/epXb7LvU8Vjj357UH938TdXnVectz+WmUl149ia5x8H8zxxy7uL15y3sfyN5Y6WvbM49t1vFc+OzB+469+X8133d99a+AattZM7fSHry9to2nX6Ir/u0B+NtB+H2qm9XvsUkA4OabscPi0UDzw6MGh90jIfzOL8Eb+f+D5SVD8p0+rTlO0zyxE5uZPU6U6qF77whcUVV1wxKCVtStvlzp8Zf85c97W//NywPD0Fq8/l5qjbmZ+fTWl75fD0q8osb9q/o6BtLmu2u2U9CjgLyB1ZlzQhd9//6IZonXv5hkR9eyBRA/k692Dx4IZojRWrkkXkzsvc6n9zWmKp9diUuWGbn01YB+RuPnRQ0Jdz7mDhOh0QcvNGZpGuaaRCqGkdHGK/s0ijDjCaTz9z9UL1kzKtPk3ZPrMcEeXOUveiF72o2LdvX/ksJNLOtFHu+g7X3JF1ycrl7vufKf5wQ47+4M/vHJWjkfJU4L5cfOq884pzyxG+g8V1+88tzo1yN5i3rN8gJ14aKdySsi8Xn37NoL9h+0HZ4S8Vv9G8A4nbHFkMwme5O3yw/E8fZX05z+yiuVbX3EmaJE9xdExY9PymXe/RNGHpskwZTacS5uXENl6Wcd+qs1jG9qlsxuXGZbnccujXcVmrvuYuSp1G6pC69ge5a555R+rSIHekrVm13Pl0rITq2REBk8BtCNrhv9wQpVG5+14c6bPIDU/jboqfZTEdoRv2b3m8eaPdnR59+1LxZ5JGydn3Pr1V/73QNqxLefrW0jcQOp/erXMkb1o6IXeSk3RELJUptdWddCp3XZS+cSNsbqs2aZ2X5f7Vh9pZ0PR4B69DrI+vLaJelyh36ldtNK3yuLxIKWcVUs6f6Vdo+15++eXFy172srKdeOMb3ziYsyjuvPNOyjfStnLkrnmQO9LXNCN3uq4tPfUZhe6u8HowaucRtfS0bClbuf5Svlx8etDPPx7RKN6Higd/dldxm8Xtax8aStrjR0avvdsUOLXfWMYZp2X/Koz4zT56F+n9o1AsP0bTKreUWZJy7WeRO0lVrBtHXJ760+ufPTD6rC0tU/2ly3N7L8/t0n7j8iJqXyXl/Jl+hbYvI3fdC3LXPMgd6WvaP3I3We7Gy2KK59s6rauRON9Ecd3hdxbnnrspcJsjhZunbLcYXJs3HPVD7ubCI2GSFEtTKkWWJomW6ixd0+QurRuHR+Dis7Zi337WlvpU/1qXiJfRRrlzkLzuBLlrnvQavHnR5ReLyN0vfvGL4sYbb6wkloRMSvuvuRvI3fA0bG7kLieLZ+Lr7iRr7y9PuW6U+zSrBG5w5+zEu2ZrGLlLr8Gbl4suOK945qctlzsjkdJKS4xSKYrCZhGbRe5S2ZqEly/0WmWeX4xbXiRd3ixyl16DNy+aP9eviHLncLds+7PI51L7o/4I+b8n7i731dw+6n3c+/c8qC/1OctnaZXoveQ+X1pP/R70WBRN67N79Tvfmi2b9PvQ+977lkuGd+VGtAwt+/Sjo+XTyMmd/g9ovOEJuSN1ZeVyt4HvVN0SssGonW5c2JCrZxOBm+WaO4/sbQrcmJG8IHJbchZurvDoYLw+b9w1dyMiGGWvXTQudz7Q+GChaR+QUimKdWqv+WaRu0n9aDrifuM6eX6VuQ/Nqz7Ul5av9fC65NYt9rdqcnLnSPJ4zl07M+/nUvuaxE77pvdJ/TN/7X9pm4tfd/5I+axo/ze5+qbQe8mtk34Xe99y8VDK9Fne+5bd5e/lxOBxLC7zdI7NfvJyJw4f3PwPHbm6cUS5s9T5j62HH364LCekrjQhd8KnZ4enPYeypvpkdM7TOlW64N2yo+3i4062+h6ZL47oTblbdjgK6OW0iFaM3OlL2UKVSpDrJFf/876/HkqWxEoHKAucZUt1/qJ3nfqJ9ekyIm4X5/WBMp1Pr91fbO/y+L4WOZAui0lyR9qbeT+X2u8sON5n9T9gJXOaVrn2b00L7ZOax3+ExHpPR7R/q+2Pjh8rL1tQ21iv/ry/x/9CofKtZ85tlcfPh8u1XD3Xzp8zLVNypmWJtw0ul/B8evad2vrUhh50HP8TxWZ/bx3259+R8GfS7/nUjzffs0TN/fkZeWojudOzNFWn74j4HzK2+jg+LJuG5O7JJ/9f8eEPf7iUuv3795eXSfzmN78p0ahdHLnzNOXzlT/77LMjOOte3pTcwWpo3WlZWD7IXTcz7+dSwmKJkdRIgnS3dxQxCY2w3EiecvXuM2Ix0uu0neosiaWQDfocV6559QeRHnKsaT28+J6NttPkzv+ZQnVaF/Xtf0nmdUuJ6+rXfi8SQc/r12WfP753uDwJpF+X7R4dbad+td4H3/fOsl1c9iQkd++6/B3lXex79+4dCsm1115bbN++vZTIa665hvIllD/3uc8tnvOc51Aeyn+okWPkrrcgd2sActfNzPO5lFxo5MhyoWnJhyVGMhLbuExt9Vrt0j5S3E6v1UZtNY/r3F9k1nJNC/U3Se52v/784elTtZlF7txOInlw8P7Ur5ajMs3n969RvrheGsXT9OayLxyO1m2ul07lfmWkrdd7FiR3p049VRw+fLh46UtfWrznPe8pvv/97w+2PiH1hpG7foPcrQHIXTczz+dSshFH4CQqljshgVGd2qitpi0xsT4KW0TzaKTNp0OFTk1qHi8rSpGYp1yvtQ6qm3Za1v/STG3UzzS5Ux/q8+TxY2WbUxvL0HIOvu/y4sGv3ToU2s1lv7U4K7xHcegD+8v6eM3d5npVl7tiMKpy6tQpJI+sNMhdv0Hu1gDkrpuZ53MpMYmjbhYoyYZERK91vZgFSD8tV7E+FTGjcrVRv7Es119k1nJNi03B2pI7vR+P1i0qd0LvTdcfqo2vydM8Om2tMgtfvD4vsrkeWyN36bSoIndOKnk+pUbIsoPc9Rvkbg1A7rqZeT+XkhTLRZQ7v9YolOvVNpUrj8S5zHj+VNLUl28kUp3lT9N73nBBWT+pfNI1d1ofLUPtfPNCFblTve6Q9fsXei0hluDFdmWfP753sL47y7LNdfyt4Y0fsZ2mtd6LXHOXyp0jyfviF7+I3JHagtz1G+RuDUDuupl5P5eSFQuOhcwyIxmJd3SncmdR0nwuMxIW3Zmeiov6Up/uR336VOa0u2InlVukVP7JQ380PN0sxsmdXutC+o9s9Bnvlo19piNtljdJZWwb75bVKVndQKH5492ym2K69VgU1UsU571bdpzcEVJ3kLt+g9ytAchdNzPv51JiFk/NzkMqezAf856SFcgdaTLIXb9B7tYA5K6bWeRz6RGk3AhcDo/wjRu1g+lI6iTHy/gPFYSsKshdv0Hu1gDkrpvhc9lvkLvqOXnyZPmMwMcee2xQks/x48eLq6++uryWkWwGues3yN0agNx1M3wu+w1yVz3I3eJB7voNcrcGIHfdDJ/LftMFuZMU+eYScc899wxqNsXqnHPOKcv37ds3FKdx5bGvceVvetObhqKmcv3HibTceeKJJ4o9e/aU87o+Ljvty3L39NNPl6/1Hxt0N3JcjtcrtvG66X//9unuZeSu3yB3awBy183wuew3bZc7idLu3bvL/3er3HrrrcWVV15Zyo/ESiNmrtOz+Y4ePTq2PPYVxUnyFdtrGWo/rjyVK/XrkTvL3pEjR8p2WrbX13KndvppSR23XppHr+P8kkavTx+C3PUb5G4NQO66GT6X/aZrp2Xj6Fd8HTOuPIqh4naPPPLIiMQ5qSSOS5S7+Np1Fjcv78CBAyOSqPWK6+t2jz/+ePnTojjr+nQpyF2/Qe7WAOSum+Fz2W+6IHca/YqnZX3aMpU1Z1J57EfkTqXOcno3JgqdxEwjd5a7KGSq06nX66+/vhQ89zVuvSSdkjuN8CF30EWQuzUAuetm+Fz2m7bLXSpLHtWSGMXXMePKJVG+xm1SxrUbVx7lLr52XTpyp/XyqWL1Na5fn6JF7qCrIHdrAHLXzfC57DddkjvLjkflojgpEiZJkqZnLVdf3/nOd0aETLLla/Ry5ZPkTgI27Zo7r7vnyb0PzePTssgddBXkbg1A7roZPpf9pu1yZ6HTacsdO3YUx44dGxEuCZNPaY67+3VcebyTVeKWaz+uPMZCd8kllwxlbdrdskocsVNdelcuI3fQdZC7NQC562b4XPabrt1QQfoV5K7fIHdrAHLXzfC57DfIHWkyyF2/Qe7WAOSum9F2g36D3JGmIrnL7ZPQH0q5g35DCCGEkPUJR35CCCGEkB4FuSOENJ43vOEN5Z2JhBBCqge5I4Q0Hj32ArkjhJDlBLkjhDSeQ4cODV4RQgipGuSOEEIIIaRHQe4IIY2HkTtCCFlekDtCSOPhmjtCCFlekDtCSONB7gghZHlB7gghjQe5I4SQ5QW5I4Q0Hq65I4SQ5QW5I4QQQgjpUZA7QgghhJAeBbkjhDQeTssSQsjygtwRQhoPN1QQQsjygtwRQhoPckcIIcsLckcIaTycliWEkOUFuSOEEEII6VGQO0IIIYSQHgW5I4Q0Hk7LEkLI8oLcEUIaDzdUEELI8oLcEUIaD3JHCCHLC3JHCGk8nJYlhJDlBbkjhBBCCOlRkDtCCCGEkB4FuSOENB5OyxJCyPKC3BFCGg83VBBCyPKC3BFCGg9yRwghywtyRwhpPJyWJYSQ5QW5I4QQQgjpUZA7QgghhJAeBbkjhDQeTssSQsjygtwRQhoPN1QQQsjygtwRQhoPckcIIcsLckcIaTycliWEkOUFuSOEEEII6VGQO0IIIYSQHgW5I4Q0Hk7LEkLI8oLcEUIaDzdUTM7JkyeLc845p9i2bdsIkmL/3m699dby9zhPmyNHjpR14/p3m1OnThVXX311OW/sL83x48fLdmqfy9NPP13WX3vttSN9jFt+XL+9e/cWjz322GAOQsikIHeEkMaD3E2O5Gb37t3FiRMnBiVF8cQTTxR79uwp7rnnnnJa4nbllVeOFSvVq70FyfNboJxcP2orKZsmV9PkzvXqP/Y17v1J6FSG3BEyX5A7QkjjqeO0bBwNirIiwfDoVSw/fPhwceDAgWLHjh1l3f79+7PzXHLJJaVkeBRKdUqUEZWpb/Wn+TSPJMzrI6FyYt/79u3LilFOfhSt89GjR0s5myZ3apuOmOXmScssgVo//W6+853vlO/bUpm+70lyp3VQG62H11vJvT//frUc5I6Q+YLcEUJ6lygciiXIwidhSE8Rqo3FLbZL+1I/YprcSdjicty36jyCFqUmXZ+YnPxYuixZ0+TO6zROIJ1xI3d+b1G60jotQ3W5/tVOdX7fBw8eHLbLvb9YptdaBnJHyGxB7gghvYskIyc6aXkULUmVxSqKW5SXmGly534Vy6USRUVl6frk5EjzTLomTZGUeQQwYglTvM6TRgrrkjvVxd+v5M6/03Hv7xvf+Maw3r8zQsj0IHeEkMaz7NOyqTQ5aXmUBomHBSwVtygfPl07Te7icibJXSpkHuGL0TxxZEv9R3lUpo3c5aL1SkcK65I7LSt9r/GGiXTkLib+zggh04PcEUIajw76UTCqJpUrJy2PkjRJ7mLURm3VRyqAFpR0OZPkLpWrXHLyoz7jMibJXTpS5mg9UxmbV+7S952Tu9z6x99Drj4mtiWETA9yRwhpPMuWu1QWPEKl8knX3OXkLhULtRHp/CpT35acWeQut545QUvbKRKuea65S+vT9XdmlTvPp/bxfasuXYdxfXr9c+8vJt0GhJDJQe4IIY2njrtlJRo+DRjFYlz5OLlTVO554l20kg6frv3kJz9ZXHbZZUPJGdd3KipxfXKnZJVx8iNp8shjXMdIvK5O7WOb3DPrpsmdMul9p3Ln36XWL12WZVZ34CJ3hCwvyB0hhBBCSI+C3BFCCCGE9CjIHSGk8dRxWpYQQtY1yB0hpPHoOrD0eixCCCGLBbkjhDQe5I4QQpYX5I4Q0ni6cFo23gGrOz/9KJD0ztguR3fKpo9GycV3/yLkhLQzyB0hhMwZ5A65I6TNQe4IIWufKGvpw4Etb3fdddfwp58VpxFH1x84cKAsH/esOkXL8bw7duwYea5brBv3P2NjuQQrV671cXlcl3HlTqz38+9iWXxeXpQ7P/POv6/cesUHH6fLIIQsP8gdIaTxNH1aVoIiOZO86PXb3va24rbbbivrJDHCEpc7LSthyf3Xixi18wOHFUlQ7MN9xwcGq9wPBY7lWr7bR7lKHzYsMVTbceXpOsaRu9hv+r4sd2oTHy6s+XPr5fldp/eluii3hJDlBbkjhDQeyVEqGqtMKlQSO4mMpEX/k1WiEgUslbsobbFuUmK7OBIWkyvP/ccHt0slzhlXnibKXRRLJb5PLe+6664b/mcKZdJ6qY9YN+v6EEIWC3JHCGk8TcudIhGRwEhaHnzwwVJyfvSjH5VSIqGZJHcuV2JdjOXHpyV9ajIVHycnS0qun3ia0yNmKounUseVx0S5i6NwShyl0+9Kp3b1u/L6TVovv0efukXuCKk3yB0hpPE0fVpWkaTdcMMNpdxIYCQunpa8VJU7lY9r5xGudJ5cuSXKojQpUdZiZinX+9JyvL6ajiN3Wq8oaZPWK61D7gipN8gdIYRsRCNTutbO195JZjRtIVmm3EluJEpul6vTcucp180LcXRNkayp7bjySXLnkT4tz3LmuiidcR69zq2XppE7QlYX5I4QQjZigZG0KKkQRYnTa51+1IjjrHJn2dGpSp3SPHbs2Mh8Eiaf0pzlrthY7lOyigTL5fH067jymPi+1J+n03mi3KWjcrn1YuSOkNUGuSOENJ42nJYlhJC+BLkjhDQejfR45IkQQki1IHeEkMaD3BFCyPKC3BFCGg+nZQkhZHlB7gghhBBCehTkjhBCCCGkR0HuCCGNh9OyhBCyvCB3hJDGww0VhBCyvCB3hJDGg9wRQsjygtwRQhoPp2UJIWR5Qe4IIYQQQnoU5I4QQgghpEdB7gghjYfTsoQQsrwgd4SQxsMNFYQQsrwgd4SQxoPcEULI8jKUuxvv/Whx7Vf3w5qj/YCQVYfTsoQQsrwM5U4H9h/+w0Ow5mg/IIQQQkh3g9zBCMgdIYQQ0u0gdzACckeaCKdlCSFkeUHuYATkjjQRbqgghJDlBbmDEZA70kSQO0IIWV6QOxgBuSNNhNOyhBCyvCB3MAJyRwghhHQ7yB2MgNwRQggh3U4n5e7jn/tYsW3btpKzX3V2ccd9d2TbLcrR228p+9bPXH2fQe5IE+G0LCGELC+dkzuJnIRO4nXfw8eLna/fWVx6+aXFAz99INse5gO5I02EGyoIIWR56ZzceVTt/R98X7Y+jupF6VN7i6Dqrvn4n4yMzlkaNX86cqc+PJ+Iyx63PIun69TO87QZ5I40EeSOEEKWl87KXSpTsU4/LVcWMf10naZdb+nST5/ijf14Xi8r1sXXueVpWuWxb9W1GeSONBFOyxJCyPLSyWvuLGomSpiFytOWsrQu1qtMP3MCZ2nLjbxNW576SJfZdpA7QgghpNvppNwJC5gF6u4H7yrFymWxTnKVkzv1oRG1z978meEp2di3fsbTtZ5PSOAmLc/zpeWxjzaC3BFCCCHdTmflzkjafMozJ3CxXVqn1yrb8+bdwz5UHuXObTS/5zOTlmeiBOb6aBvIHVlFbrrppuKKK64YXmcXT8vu37+/rCeEELJYOid3EqQoYlGwJknZOBFTuebx6VSVxX7SeeNI3rjlWejcZ5wnLruNIHdkFXnqqaeKF7/4xcVDDz1UTvuGihMnTpTlTz75ZFlOCCFk/nRO7tLToVH0hATKdVHYxsmdBS2KVyp36TLVl9uOW55lL1fXZpA7sqpotG7fvn2l1FnuNGrHzRWEEFItnT8tC8sFuSOrikbvXvKSl5SjdxI6jdppmlE7QgipFuQORkDuyCojqfO1d4zaEULIcoLcwQjIHVllPHp3++23M2pHCCFLCnIHIyB3ZNXRaN3ZZ5/NqB0hhCwpyB2MgNyRVUejd+9617uKX/7yl4MSQgghVYLcwQjIHSGEENLtIHcwAnJHCCGEdDtDufuzr32wPLADAAAANMWN9360OH361wM7IYuEkTsAAABoDYf/9qri18hdpSB3AAAA0BqQu+pB7gAAAKA1IHfVg9wBAABAa0Duqge5AwAAgNaA3FUPcgcAAACtAbmrHuQOAAAAWgNyVz3IHQAAALQG5K56kDsAAABoDchd9SB3AAAA0BqQu+pB7gAAAKA1IHfVg9wBAABAa0Duqge5AwAAgNaA3FUPcgcAAACtAbmrHuQOAAAAWgNyVz3IHQAAALQG5K56kDsAAABoDchd9SB3AAAA0BqQu+pB7gAAAKA1IHfVg9wBAABAa0Duqge5AwAAgNaA3FUPcgcAAACtAbmrHuQOAAAAWgNyVz3IHQAAALQG5K56apM79Qf9JrfdU3LzQb/IbfeU3HzQL37wD9/PbvvI4a9elZ0X+sMPfj59P5gGclc9tcpdrhz6wazbl/2g37AfgJC0zSp3s7SDbiIpQ+7aEeQOFoKDOgj2AxDIHQjkrj1B7mAhOKiDYD8AgdyBQO7aE+QOFoKDOgj2AxDIHQjkrj1B7mAhOKiDYD8AgdyBQO7aE+QOFoKDOgj2AxDIHQjkrj1B7nrM+TvPL7Zt27Ywmj/Xr+Cg3h2Wsh/8PN83+0F3uPC1F2a376xoPxh34EbuusPvve73irPOOiu7jWfhNRe8pvjeo9/N9o3ctSfIXY/RB7FKNH+uX8FBvTvoi/z06dODrTp/NP+4L2z2g+6g7fjrXy9+wNy+fXvxg0eRu66j7fjMM88Mtur8ed7znld87xHkru1B7noMcgcCuQOB3IFA7tYjyF2PQe5AIHcgkDsQyN16BLnrEem1VS9/xctHpnft2jXY2rNF8+SWIziot5dl7wfIXTdJr7HL7QfzSD9y103Sa+zS/eCiiy6aS/qRu24EuesR+qBOyrT6NGqfW47goN5epo3UTatPg9x1E223SQdtydo8B3XkrptMG6mTrM0zkofcdSPIXY9A7kAgdyCQOxDI3Xqmk3L38c99rBSPyM7X7yzue/h4Wf/ATx8oLr380hK9TuevwsGPfLC44747snVNo9/DpEyrT6P2ueWIth7Uve29X6T7QJu337JYR7nTNv3t3/3t8rshV18HR2+/Zbg8vdbv6chtf35Gu6ZA7s7E+4m+F779k2+PlP2nz350JjHxdlfbcrtv39juxza3+9Gv3rLxe3pu+d3zb//4vUsRnaogd+uZzsrd2a86e3iQ9gE9Cl4dpMttG1xzt7mNvB/oi1fvwQfgtm+/ZbGO19z5AO1tXTfD5X12dTI5L1xzdybebnr/FnGXzSJ309r+uw/9QVl/+723n1HXFFxzt57phdwJvVaZ6tKRu/d/8H3lAV/T2pl10NfBX2XewVXmviwFwsuJZbG9lueyKJdur2Xr51t//1+PzOflq97LXTZaXpVo/ly/oi0H9RT/vv17NlW3n36m+0zcdt7/VO4/NFyfjiauSkCMvtjnOYin6Yvcvf/gxrY8a3MbaHt45GZSnfv1ttNBXfvBa9/42mGZRmi0v+j3FEfudKD3QfXSd2z1qXLtHxpFVr32m1XIgJY1z0E8Td/kbufrdhb3/vCeYVkUtk9c/6fDbXfB6y4o23m7u7zc7rdtjdxp33OduPIPrxwRvdxymmDaSN60IHfdSG/kLspSTu70YfMBPa2P/Qm9VttJ7dL1SNtGOUjXT9Ou9zrVgfqvEs2f61e05aCe4m0ttH1iXZXtJ/Tafeqn6uN+ou2r7ZzOq59pXZ3bPUUHnHWXO8mbtkE8SJfb5+83t6Xrhv18dvOPxMveddlwW0nKtL/oYB3bqU5t9Huy3Fng0uXp92jpU9u0zutbB1omcre53fa8eXf5+5BouczSJbHTtLaz9wF9viXnadtyu4fTstq2nndSv+l6rRLkbj2yNnLng6vaaj7N7wOBp/VB9Re920bictNlqF7z+8AdX3v+uB7pOtWBll8lmj/Xr2jLQT3F+4HWXcTfcdXtl+tf9d5/tE1jG03H17HO+94q0EFsneVOv/MocyrzvvCVO79S7gOxLsV9a3trnmlyF5fn35uW5wO7yt2P9r0oD3G5ywa529qW13z8T8rfuT6L2mYqk4RpG6Tbo9y2A4Hz/LPIXdy2kvxVbedpIHfrkbWUO30gfXCOqN+0bSQuNy7P9e5XP+PrWK/59TOddxlwzd0W+t36ffv3XGX7eZ/K1as/9av+1Tb27Tq1jSx720e45m56nfeFv7jjL4qdbxzsB4ncaTtK0tROB+tynt+dLneukwC4L83rg76Wpf1DB/w65Y5r7s4kbhu/vnDXheU2Vpm2SSrm5bZdQO40rdE69RcFchnyMw9cc7ee6Y3c6bXKVDdN7mJbz29yfefq0mWoPh7w42vP74P+e9777rKfWLcMtLxJmVafRu1zyxFtOahPwr9vb6Mq2y/dZ2K96yxsUe7ia9WtAn2RTzpoT6tP03W50zaYNnInUrnStrWwDeeZQe7i8vx707w+6Ktc+0Tdcqf1mXTQlqzNc1Dvm9xp2/gUuT7LKtM2WNbIXVyers+L5atk2kidZI27ZfuX3sidvzD1xZoeuGOd2qb1sT8RD+Jx3nS5cTrtUx/6KAdG/ak8rs+yUL+TMq0+jdrnliPaclCP6Pep36u3gaf1O1d9le0X+3Jb13s67ieq83LjPjRuv1gmOlghd6NMu+ZO+4EOvLFu2OeGwLnc7WKd+tf21O/JIqiDfG55FgrXad9B7laHt5vlzNP6TLpsWdfcadrza1u89e1vXfo2ngXkbj3TWbnThzHig6fqfbAVeh0Pru5Dr1Xm+ePB1gdgEWVAPzWtch9E4rp4ebGP2G8sLw8soXwZqN9JmVafRu1zyxFtOainxG0k4japuv1iW5/KcT+xb/Wjfcvb2Puj5/U8dTFN3qbVp1H7cV/YbdkP9Pv3QTry/j/e2AY/32wT74iN5WmdtpUPwnFkRxfh66cETttUB223/8JXvlC2s9yl88ZnniF31Q/+i+L9xHKmMt8ZmyvTtotS5u2lOpXf+OUbi7OeO17uxvW/SpC79Uwn5a7LjJO+ZcA1d81geRN6bdGrW+LGsY7X3MGZcM1dO4gjgbn6uuGau/UMcrci4khhHaN2ObSsKtH8uX4FB/VRLO3Gopdru2r0xT7PQTwNctcPtB3nOYinQe7mI44mNzVql2PaSN60IHfdCHLXY/SlUiWaP9ev4KDeHZA7EMgdCORuPYLc9RjkDgRyBwK5A4HcrUeQux6TXns1L5o/16/goN4dlrIfhJsPIuwH3SG9Bm9etB+MO3Ajd90hvQZvXl5zwWuK7z2K3LU9vZS79E7YZV/jll5An2vTd7pwUGc/qJ+u7Ad6FMlwP0julK2Ktn1dd7x2hS7I3XA/GNwVHe9gXgbsB8hdm9JLudNB3AdcP76ijrtT15kuHNTZD+qnE/vBwc39QAdc7QcatYiPLIHqdEHu9JgS7wd+PAn7wXJB7tqT3smdDuT6AOtRFLpbKa1PR3N8sPfdjhIC/Xz7Fb8/8jgLz6d6L8PioHrPJ2L5uOV1nbYf1NkPVkMX9gONpmgb5h5Foe0SR/V8sNf20cFfozv6OdwPBg8t9nzlfvCTM0ds4jPuLn3HVvm45XWdtsvdrPuBt5mfW1fuB9u39oO973lbcfbvbP6rMklM3A+0jSftB/F5eenybj5281JHk5sCuWtPeit3/vKMB1HX+aCrA7YP/vGgHtt62vX6metHB259YOMzziYtz+vUVbpwUNfvnf2gXrqwH+iA6/0gypTrtF100C23y+Dfi2n76sDrU3duq/1A065Xf7l+tB/oIcXaxn5obq5dk88/WyZdkTvL1KT9ID6XrtzOA7kbux8M/kNFrh8JXLofqG7c8uI6dxHkrj3p5WlZH1j9ha4PkT548YAb2+kDKtRWP92Pv6R1sNaH2a/Vl/oU95+8v/zpg39k0vLStl2j7Qd1wX5QP13ZD3TwjPuBDqouj9tF0zrwa9tY3tyP9wMdrL0fpP9l4viJ4yMHf88b+9cBPk7HZXSVtsudSPcDj6TF7aJtdsZ+EP69mIjSNu6/jcy6H6TL6/roHXLXnvRS7oQPvP4g64vZB+6UWBcPuPrQ6SD82Zs/U36AfeCOB/W7H7x7pC4yaXlp267RhYO6YD+oly7tBzrY+nevA6u2i0dyIrEuipcPwp/+wqeG21oHMvet/eDOB+4cnqZLD3KTlhfbdZEuyJ3wtvJ2mGk/SOQu7gdxW8+8H3z1lmL79udml7cMMWoS5K496a3cGR+Y9SHz69xBVR9ifcD002U+ePv/iLrO5cIjNkLlnldMWl7X6cpB3bAf1EMX9wMdmL0f6PW4/SCVO21XHby9H7jO5dr2HrHRa40KeV7h5fVB5lK6InfG20KnW3U61NslK+SJ3C1zP+i6zKUgd+1J7+ROHxx94PTlHaf1Ba4Pnz5sQq9Vpjq1yR3UhdqoXH+p61Scyib1ozb+q35Su7iMLtL2gzr7wWrown6gA2m5H/z91rT3g3gALrdLcs1dlDuhNirXttWpOJXl+tEy1I/2A4/gqG5cu7iMLtJ2ufN297VznpZgpdsld81dlDuhNtoPLnjdBWP3g9jPpP2Aa+7OBLmrnl6O3PkAbXyAFz7ous4Hcc/jaaMvgSgJIj1Yq0z17jOWj1te12n7QV2wH9RPV/aDeNotPufOB13XWeY8Typ3lgJtZx/EtI3jwVpl3C2bp8mRu3Q/sOipztvF9Za5cp6M3KWyqLJp+wF3y84Oclc9vT8tC/XQhYM61A/7AYguyB3UD3LXniB3sBAc1EGwH4BA7kAgd+0JcgcLwUEdBPsBCOQOBHLXniB3sBAc1EGwH4BA7kAgd+0JcgcLwUEdBPsBCOQOBHLXniB3sBAc1EGwH4BA7kAgd+0JcgcLwUEdBPsBCOQOBHLXniB3sBAc1EGwH4BA7kAgd+0JcgcLwUEdBPsBCOQOBHLXniB3sBAc1EGwH4BA7kAgd+0JcgcLwUEdBPsBCOQOBHLXniB3sBAc1EGwH4BA7kAgd+0JcgcLwUEdBPsBCOQOBHLXntQqd9Bvcts9JTcf9Ivcdk/JzQf9Yla5y80L/QG5a0dqkzsAAACAeUHuqge5AwAAgNaA3FUPcgcAAACtAbmrHuQOAAAAWgNyVz3IHQAAALQG5K56kDsAAABoDchd9SB3AAAA0BqQu+pB7gAAAKA1IHfVg9wBAABAa0Duqqc2uVN/0G9y2x0AAKAKyF311Cp3uXLoB2xfAACoA+SuepA7WAi2LwAA1AFyVz3IHSwE2xcAAOoAuase5A4Wgu0LAAB1gNxVD3IHC8H2BQCAOkDuqge5g4Vg+wIAQB0gd9WD3PWY83eeX2zbtm1hNH+uX8H2BQCAOkDuqge56zEStCrR/Ll+BdsXAADqALmrHuSuxyB3AADQNZC76kHuegxyBwAAXQO5qx7krkek19i9/BUvH5netWvXYGvPFs2TW45g+wIAQB0gd9WD3PUIydikTKtPg9wBAMCqQe6qB7nrEcgdAAB0HeSuetZO7t7/wfeV0qKfufpxPPDTB8p57nv4ePn60ssvLdHrXPsmQO4AAKDrIHfVs1ZyJzHb+fqdpbTop6Zz7XJI7DxPW+WOa+4AAKDrIHfVs1Zyd/T2W0ph8eidptM6l338cx8rzn7V2cUd991RvladUNmxu4+VYvfP/+WeEpXPK4urQOtVJZo/169A7gAAoA6Qu+pZK7nz6NvfbgibfsZTs5PkLs4bR+5cL/Ra87i/NoDcAQBA10Duqmdt5M6nZC10UdY0vYjceTrtuy0gdwAA0DWQu+pZG7lL5W3a9Cxy52vu2iJ3XHMHAABdB7mrnrWQO8tYFB1jQeuD3Gn9J2VafRq1zy1HIHcAAFAHyF31rIXc+Zq4VL40bYFzG0md5Q25Q+4AAGC1IHfVsxZyJ2GTqHhUzni0TvWalpxpWlL3nve+e0Tu3FZ84Ss3IXfIHQAA1AByVz1rIXfrAtfcAQBA10Huqge56zGSsypB7gAAYNUgd9WD3PUY5A4AALoGclc9yF2PQe4AAKBrIHfVg9z1mPQavHnR/Ll+BdsXAADqALmrnl7Kne9etaQs+y7W9FEouTZ9B7kDAIA6QO6qp5dyJ5mzeI17DApUA7kDAIA6QO6qp3dy51G1+Iy6SDqqZ+nzc+z8rLu3X/H7w4cax/lUnxu583wilo9bXtdB7gAAoA6Qu+rprdzlZCqVMombJTDKXWzradfrZ64fCZxELvefLnLL8zp1FeQOAADqALmrnl6elrVgWfAsV1G8YjsJW5Q39xOlTZLn11Ha7j95f/nTEhiZtLy0bddA7gAAoA6Qu+rppdwJC5gFT4JlgUuJdVG8LGOfvfkzw1OysW9x94N3j9RFJi0vbds1kDsAAKgD5K56eit3xoIm+UpH0iI5ubPEXbjrwpERt9zInVC55xWTltd1kDsAAKgD5K56eid3UebitAQrSpleq0x1apOTO6E2KvcpWZVN6sc3UGj5k9rFZXQR5A4AAOoAuaueXo7cWdRMPGVq+XKdZW6c3KWyKFJpU5nq3WcsH7e8roPcAQBAHSB31dP707JQD2xfAACoA+SuepA7WAi2LwAA1AFyVz3IHSwE2xcAAOoAuase5A4Wgu0LAAB1gNxVD3IHC8H2BQCAOkDuqge5g4Vg+wIAQB0gd9WD3MFCsH0BAKAOkLvqQe5gIdi+AABQB8hd9SB3sBBsXwAAqAPkrnqQO1gIti8AANQBclc9yB0sBNsXAADqALmrHuQOFoLtCwAAdYDcVQ9yBwvB9gUAgDpA7qqnVrmDfpPb7gAAAFVA7qqnNrkDAAAAmBfkrnqQOwAAAGgNyF31IHcAAADQGpC76kHuAAAAoDUgd9WD3AEAAEBrQO6qB7kDAACA1oDcVQ9yBwAAAK0Buase5A4AAABaA3JXPcgdAAAAtAbkrnqQOwAAAGgNyF31IHcAAADQGpC76kHuAAAAoDUgd9WD3AEAAEBrQO6qB7kDAACA1oDcVQ9yBwAAAK0Buase5A4AAABaA3JXPcgdAAAAtAbkrnqQOwAAAGgNyF31IHcAAADQGpC76hnK3Y33frQUPAAAAICmkI+cRu4qpCj+P/0uhp8m/eYWAAAAAElFTkSuQmCC;" vertex="1" parent="MXRZr6SWhceYkOSyRdzz-1">
          <mxGeometry x="69" y="143" width="631" height="329" as="geometry" />
        </mxCell>
        <mxCell id="MXRZr6SWhceYkOSyRdzz-3" value="" style="group" vertex="1" connectable="0" parent="MXRZr6SWhceYkOSyRdzz-1">
          <mxGeometry x="301" y="44" width="118" height="51" as="geometry" />
        </mxCell>
        <mxCell id="MXRZr6SWhceYkOSyRdzz-4" value="" style="shape=folder;fontStyle=1;spacingTop=10;tabWidth=38;tabHeight=7;tabPosition=left;html=1;fontSize=13;strokeColor=#10739e;fillColor=#b1ddf0;" vertex="1" parent="MXRZr6SWhceYkOSyRdzz-3">
          <mxGeometry width="118" height="51" as="geometry" />
        </mxCell>
        <mxCell id="MXRZr6SWhceYkOSyRdzz-5" value="&lt;span style=&quot;color: rgb(51 , 51 , 51)&quot;&gt;&lt;b&gt;MinIO&lt;/b&gt;&lt;/span&gt;" style="text;html=1;align=center;verticalAlign=middle;resizable=0;points=[];autosize=1;strokeColor=none;fillColor=none;" vertex="1" parent="MXRZr6SWhceYkOSyRdzz-3">
          <mxGeometry x="37.497142857142855" y="21.004462499999985" width="43" height="18" as="geometry" />
        </mxCell>
        <mxCell id="MXRZr6SWhceYkOSyRdzz-6" value="" style="endArrow=open;html=1;rounded=0;exitX=0.461;exitY=0.061;exitDx=0;exitDy=0;exitPerimeter=0;entryX=0.5;entryY=1;entryDx=0;entryDy=0;entryPerimeter=0;dashed=1;strokeColor=#4D4D4D;endFill=0;" edge="1" parent="MXRZr6SWhceYkOSyRdzz-1" source="MXRZr6SWhceYkOSyRdzz-2" target="MXRZr6SWhceYkOSyRdzz-4">
          <mxGeometry width="50" height="50" relative="1" as="geometry">
            <mxPoint x="323" y="314" as="sourcePoint" />
            <mxPoint x="373" y="264" as="targetPoint" />
          </mxGeometry>
        </mxCell>
      </root>
    </mxGraphModel>
  </diagram>
</mxfile>
